# Made in Blockbench 4.12.4
mtllib Torre.mtl

o Torre
v 0.03194375 0.0625 0.03194375
v 0.03194375 0.15625 0.03194375
v -0.03194375 0.15625 -0.03194375
v 0.03194375 0.15625 -0.03194375
v -0.03194375 0.15625 0.03194375
v 0.023958125 0.15625 0.023958125
v 0.023958125 0.15625 -0.0239575
v -0.0239575 0.15625 0.023958125
v -0.0239575 0.15625 -0.0239575
v -0.01916875 0.15625 0.023958125
v -0.01916875 0.15625 -0.0239575
v -0.0126375 0.15625 0.023958125
v -0.0126375 0.15625 -0.0239575
v 0.0126375 0.15625 0.023958125
v 0.0126375 0.15625 -0.0239575
v 0.0191625 0.15625 0.023958125
v 0.0191625 0.15625 -0.0239575
v -0.019166875 0.15625 -0.03194375
v -0.01264 0.15625 -0.03194375
v 0.012636875 0.15625 -0.03194375
v 0.019164375 0.15625 -0.03194375
v -0.025416875 0.0625 0.03194375
v 0.025414375 0.0625 0.03194375
v -0.019166875 0.15625 0.03194375
v -0.0126375 0.15625 0.03194375
v 0.0126375 0.15625 0.03194375
v 0.019164375 0.15625 0.03194375
v -0.014375 0.15625 0.014375625
v -0.014375 0.15625 -0.014373125
v -0.0239575 0.15625 0.01916875
v -0.0239575 0.15625 0.0126375
v -0.0239575 0.15625 -0.0126375
v -0.0239575 0.15625 -0.0191625
v -0.03194375 0.15625 0.019166875
v -0.03194375 0.15625 0.0126375
v -0.03194375 0.15625 -0.0126375
v -0.03194375 0.15625 -0.019164375
v -0.03194375 0.0625 0.019166875
v -0.02541875 0.0625 0.019166875
v 0.0254125 0.0625 0.019166875
v 0.03194375 0.0625 0.019166875
v 0.03194375 0.15625 0.019166875
v 0.03194375 0.15625 0.01264
v 0.03194375 0.15625 -0.012636875
v 0.03194375 0.15625 -0.019164375
v 0.023958125 0.15625 0.01916875
v 0.023958125 0.15625 0.0126375
v 0.023958125 0.15625 -0.0126375
v 0.023958125 0.15625 -0.0191625
v 0.014373125 0.15625 0.014375625
v 0.014373125 0.15625 -0.014373125
v -0.0126375 0.1625 0.03194375
v 0.0126375 0.1625 0.03194375
v 0.0126375 0.1625 0.023958125
v -0.0126375 0.1625 0.023958125
v -0.0239575 0.1625 0.0126375
v -0.0239575 0.1625 -0.0126375
v -0.03194375 0.1625 -0.0126375
v -0.03194375 0.1625 0.0126375
v -0.0126375 0.1625 -0.0239575
v 0.0126375 0.1625 -0.0239575
v 0.012636875 0.1625 -0.03194375
v -0.01264 0.1625 -0.03194375
v 0.03194375 0.1625 0.01264
v 0.03194375 0.1625 -0.012636875
v 0.023958125 0.1625 -0.0126375
v 0.023958125 0.1625 0.0126375
v 0.03194375 0.1625 -0.03194375
v 0.0191625 0.1625 -0.0239575
v 0.019164375 0.1625 -0.03194375
v 0.023958125 0.1625 -0.0239575
v 0.03194375 0.1625 -0.019164375
v 0.023958125 0.1625 -0.0191625
v -0.0239575 0.1625 -0.0239575
v -0.01916875 0.1625 -0.0239575
v -0.019166875 0.1625 -0.03194375
v -0.03194375 0.1625 -0.03194375
v -0.0239575 0.1625 -0.0191625
v -0.03194375 0.1625 -0.019164375
v -0.0239575 0.1625 0.023958125
v -0.0239575 0.1625 0.01916875
v -0.03194375 0.1625 0.019166875
v -0.03194375 0.1625 0.03194375
v -0.019166875 0.1625 0.03194375
v -0.01916875 0.1625 0.023958125
v 0.03194375 0.1625 0.03194375
v 0.03194375 0.1625 0.019166875
v 0.023958125 0.1625 0.01916875
v 0.023958125 0.1625 0.023958125
v 0.019164375 0.1625 0.03194375
v 0.0191625 0.1625 0.023958125
v 0.0126375 0.115625 0.03194375
v -0.01263875 0.115625 0.03194375
v -0.019166875 0.109375 0.03194375
v -0.03194375 0.115625 0.019166875
v -0.03194375 0.115625 -0.019164375
v -0.03194375 0.0625 -0.03194375
v -0.019166875 0.115625 -0.03194375
v 0.03194375 0.0625 -0.03194375
v 0.03194375 0.115625 -0.019164375
v 0.03194375 0.115625 0.019166875
v 0.019164375 0.109375 0.03194375
v 0.0191625 0.109375 0.019166875
v -0.01916875 0.109375 0.019166875
v 0.0126375 0.115625 0.01916875
v -0.01263875 0.115625 0.01916875
v -0.03194375 0.0625 0.03194375
v 0.019164375 0.115625 -0.03194375
v -0.014375 0.175 -0.014373125
v 0.014373125 0.175 0.014375625
v 0.014373125 0.175 -0.014373125
v -0.008625 0.175 0.014375625
v -0.008625 0.175 -0.014373125
v -0.002875625 0.175 0.014375625
v -0.002875625 0.175 -0.014373125
v 0.002874375 0.175 0.014375625
v 0.002874375 0.175 -0.014373125
v 0.008624375 0.175 0.014375625
v 0.008624375 0.175 -0.014373125
v -0.002875625 0.175 0.008625
v -0.008625 0.175 0.008625
v -0.008625 0.175 0.002875625
v -0.008625 0.175 -0.002874375
v -0.002875625 0.175 -0.008624375
v -0.008625 0.175 -0.008624375
v -0.014375 0.175 0.008625
v -0.014375 0.175 0.002875625
v -0.014375 0.175 -0.002874375
v -0.014375 0.175 -0.008624375
v 0.002874375 0.175 0.008625
v 0.002874375 0.175 -0.008624375
v 0.008624375 0.175 0.008625
v 0.008624375 0.175 0.002875625
v 0.008624375 0.175 -0.002874375
v 0.008624375 0.175 -0.008624375
v 0.014373125 0.175 0.008625
v 0.014373125 0.175 0.002875625
v 0.014373125 0.175 -0.002874375
v 0.014373125 0.175 -0.008624375
v -0.008625 0.18125 0.014375625
v -0.008625 0.18125 0.008625
v -0.014375 0.18125 0.008625
v -0.014375 0.18125 0.014375625
v -0.008625 0.18125 0.002875625
v -0.014375 0.18125 0.002875625
v -0.002875625 0.18125 0.014375625
v -0.002875625 0.18125 0.008625
v -0.008625 0.18125 -0.002874375
v -0.008625 0.18125 -0.008624375
v -0.014375 0.18125 -0.008624375
v -0.014375 0.18125 -0.002874375
v -0.014375 0.18125 -0.014373125
v -0.008625 0.18125 -0.014373125
v -0.002875625 0.18125 -0.008624375
v -0.002875625 0.18125 -0.014373125
v 0.002874375 0.18125 -0.014373125
v 0.008624375 0.18125 -0.008624375
v 0.002874375 0.18125 -0.008624375
v 0.008624375 0.18125 -0.014373125
v 0.014373125 0.18125 -0.008624375
v 0.014373125 0.18125 -0.014373125
v 0.014373125 0.18125 -0.002874375
v 0.008624375 0.18125 -0.002874375
v 0.008624375 0.18125 0.014375625
v 0.008624375 0.18125 0.008625
v 0.002874375 0.18125 0.008625
v 0.002874375 0.18125 0.014375625
v 0.014373125 0.18125 0.014375625
v 0.014373125 0.18125 0.008625
v 0.014373125 0.18125 0.002875625
v 0.008624375 0.18125 0.002875625
v -0.014375 0.175 0.014375625
vt 0.8010806108149094 0.7901387422711509
vt 0.8010806108149094 0.4491141984617707
vt 1.0013875 0.0031590257879657857
vt 1.0013875 0.7901387422711509
vt 0 0.7901387422711508
vt 0 0.0031590257879655637
vt 0.2003068891850906 0.4491141984617706
vt 0.2003068891850906 0.7901387422711508
vt 0 0.7901387422711509
vt 0 0.0031590257879656747
vt 0.20030688918509115 0.4491141984617707
vt 0.20030688918509115 0.7901387422711509
vt 0.8010806108149092 0.7901387422711508
vt 0.8010806108149092 0.3966488840295581
vt 1.0013874999999999 0.0031590257879655637
vt 1.0013874999999999 0.7901387422711508
vt 0.8010512216298177 0.43883435643210866
vt 0.7259814465124241 0.3637232506557786
vt 0.8762189606975153 0.4012567624630181
vt 0.8762189606975153 0.43883435643210866
vt 0.8762189606975153 0.06332785671047281
vt 0.8010512216298177 0.06332785671047281
vt 0.8010806108149089 0.0007458809358285023
vt 1.0013874999999999 0.0007458809358285023
vt 0.8762189606975153 0.4388344054122886
vt 0.8762189606975153 0.4012568114431978
vt 1.0013874999999999 0.4012715054971483
vt 1.0013874999999999 0.5014212792049162
vt 1.0013874999999999 0.5014212792049162
vt 0.8010806108149089 0.5014212792049162
vt 0.8010512216298177 0.4388344054122886
vt 0.8762189606975153 0.4388344054122886
vt 0 0.5014212792049162
vt 0 0.4012715054971483
vt 0.12517833569751513 0.4012568114431978
vt 0.12517833569751513 0.4388344054122886
vt 0.12517833569751513 0.43883435643210866
vt 0.12517833569751513 0.4012567624630181
vt 0.2753766643024847 0.3637232506557786
vt 0.20023831441987877 0.43883435643210866
vt 0.12517833569751513 0.4388344054122886
vt 0.20023831441987877 0.4388344054122886
vt 0.20026770360496973 0.5014212792049162
vt 0 0.5014212792049162
vt 0.20023831441987877 0.43883435643210866
vt 0.30261064248679337 0.43883435643210866
vt 0.3025714569066719 0.5014212302247364
vt 0.20026770360496973 0.5014212302247364
vt 0.30261064248679337 0.4388344054122886
vt 0.6987768575132065 0.4388344054122886
vt 0.6987670611181765 0.5014212792049162
vt 0.3025714569066719 0.5014212792049162
vt 0.6987768575132065 0.43883435643210866
vt 0.8010512216298177 0.43883435643210866
vt 0.8010806108149089 0.5014212302247364
vt 0.6987670611181765 0.5014212302247364
vt 0.8011197963950303 0.7901387422711508
vt 0.8011197963950303 0.4491141984617706
vt 1.0013875 0.0031590257879655637
vt 1.0013875 0.7901387422711508
vt 0.30262043888182333 0.7901387422711508
vt 0.2003068891850906 0.4491141984617706
vt 0.8011197963950303 0.4491141984617706
vt 0.6988160430933275 0.7901387422711508
vt 0 0.7901387422711508
vt 0 0.0031590257879655637
vt 0.20026770360496965 0.3966488840295581
vt 0.20026770360496965 0.7901387422711508
vt 0.20026770360496965 0.7901387422711508
vt 0.20026770360496965 0.3966488840295581
vt 0.3025910496967324 0.4491141984617707
vt 0.3026106424867928 0.7901387422711508
vt 0.3026106424867928 0.7901387422711508
vt 0.3025910496967324 0.4491141984617707
vt 0.6987768575132066 0.4491141984617707
vt 0.6987768575132066 0.7901387422711508
vt 0.6987768575132066 0.7901387422711508
vt 0.6987768575132066 0.4491141984617707
vt 0.8010806108149092 0.3966488840295581
vt 0.8010806108149092 0.7901387422711508
vt 0 0.0007458809358285023
vt 0.20026770360496973 0.0007458809358285023
vt 0.20023831441987877 0.06332785671047281
vt 0.12517833569751513 0.06332785671047281
vt 0.20026770360496973 0.0007458319556484794
vt 0.30261064248679337 0.0007458319556484794
vt 0.30261064248679337 0.06332780773029278
vt 0.20023831441987877 0.06332780773029278
vt 0.30261064248679337 0.0007458809358285023
vt 0.6987768575132065 0.0007458809358285023
vt 0.6987768575132065 0.06332785671047281
vt 0.30261064248679337 0.06332785671047281
vt 0.6987768575132065 0.0007458319556484794
vt 0.8010806108149089 0.0007458319556484794
vt 0.8010512216298177 0.06332780773029278
vt 0.6987768575132065 0.06332780773029278
vt 0.20023831441987877 0.06332780773029278
vt 0.2753766643024847 0.13842421945267247
vt 0.12517833569751513 0.1008613195375323
vt 0.12517833569751513 0.06332780773029278
vt 0.12517833569751513 0.06332785671047281
vt 0.12517833569751513 0.10086136851771221
vt 0 0.10087606257166248
vt 0 0.0007458809358285023
vt 0.12517833569751513 0.1008613195375323
vt 0.12517833569751513 0.15204560746466944
vt 0 0.15204560746466944
vt 0 0.10087601359148246
vt 0.12517833569751513 0.15204565644484946
vt 0.12517833569751513 0.3501215036958951
vt 0 0.3501215036958951
vt 0 0.15204565644484946
vt 0.12517833569751513 0.35012145471571543
vt 0.12517833569751513 0.4012567624630181
vt 0 0.4012714565169685
vt 0 0.35012145471571543
vt 0.8011197963950307 0.7901387422711509
vt 0.8011197963950307 0.4491141984617707
vt 1.0013874999999999 0.0031590257879656747
vt 1.0013874999999999 0.7901387422711509
vt 0.30261064248679315 0.7901387422711509
vt 0.20030688918509115 0.4491141984617707
vt 0.8011197963950307 0.4491141984617707
vt 0.6987768575132072 0.7901387422711509
vt 0 0.5006754441260586
vt 0 0.40054525331927904
vt 0.10227436411661124 0.40054525331927904
vt 0.10230375330170217 0.5006754441260586
vt 0.899044561118176 0.5006754441260586
vt 0.8990151719330852 0.40054525331927904
vt 1.0013874999999999 0.40054525331927904
vt 1.0013874999999999 0.5006754441260586
vt 0 0.7901387422711509
vt 0 0.0031590257879657857
vt 0.2002677036049696 0.4491141984617707
vt 0.2002677036049696 0.7901387422711509
vt 0.3025714569066721 0.7901387422711509
vt 0.2002677036049696 0.4491141984617707
vt 0.8010806108149094 0.4491141984617707
vt 0.6987670611181764 0.7901387422711509
vt 1.0013874999999999 0.0007458809358285023
vt 1.0013874999999999 0.10087606257166248
vt 0.8762189606975153 0.10086136851771221
vt 0.8762189606975153 0.06332785671047281
vt 1.0013874999999999 0.10087601359148246
vt 1.0013874999999999 0.15202601539273575
vt 0.8762189606975153 0.15204560746466944
vt 0.8762189606975153 0.1008613195375323
vt 1.0013874999999999 0.15202606437291555
vt 1.0013874999999999 0.3501166056779117
vt 0.8762189606975153 0.3501215036958951
vt 0.8762189606975153 0.15204565644484946
vt 1.0013874999999999 0.350116556697732
vt 1.0013874999999999 0.4012714565169685
vt 0.8762189606975153 0.4012567624630181
vt 0.8762189606975153 0.35012145471571543
vt 0.8762189606975153 0.06332780773029278
vt 0.8762189606975153 0.1008613195375323
vt 0.7259814465124241 0.13842421945267247
vt 0.8010512216298177 0.06332780773029278
vt 0.6358742050234788 0.3637234465764978
vt 0.6358742050234788 0.3186714771646504
vt 0.7259814465124241 0.3186714771646504
vt 0.7259814465124241 0.3637234465764978
vt 0.6987768575132066 0.8426040567033634
vt 0.3026106424867928 0.8426040567033634
vt 0.3026106424867928 0.7901387422711508
vt 0.6987768575132066 0.7901387422711508
vt 0.75 0.8666666666666667
vt 0.75 0.8666666666666667
vt 0.75 0.8
vt 0.75 0.8
vt 0.3125 0.8666666666666667
vt 0.75 0.8666666666666667
vt 0.75 0.8
vt 0.3125 0.8
vt 0.3125 0.8666666666666667
vt 0.3125 0.8666666666666667
vt 0.3125 0.8
vt 0.3125 0.8
vt 0.125 0.8666666666666667
vt 0.125 0.8666666666666667
vt 0.125 0.8
vt 0.125 0.8
vt 0 0.8666666666666667
vt 0.125 0.8666666666666667
vt 0.125 0.8
vt 0 0.8
vt 0.6987768575132072 0.8426040567033631
vt 0.30261064248679315 0.8426040567033631
vt 0.30261064248679315 0.7901387422711509
vt 0.6987768575132072 0.7901387422711509
vt 0.125 0.8666666666666667
vt 0 0.8666666666666667
vt 0 0.8
vt 0.125 0.8
vt 0.75 0.8666666666666667
vt 0.3125 0.8666666666666667
vt 0.3125 0.8
vt 0.75 0.8
vt 0.75 0.8666666666666667
vt 0.75 0.8666666666666667
vt 0.75 0.8
vt 0.75 0.8
vt 0.6988160430933275 0.8426040567033631
vt 0.30262043888182333 0.8426040567033631
vt 0.30262043888182333 0.7901387422711508
vt 0.6988160430933275 0.7901387422711508
vt 0.3125 0.8666666666666667
vt 0.3125 0.8666666666666667
vt 0.3125 0.8
vt 0.3125 0.8
vt 0.6987670611181764 0.8426040567033631
vt 0.3025714569066721 0.8426040567033631
vt 0.3025714569066721 0.7901387422711509
vt 0.6987670611181764 0.7901387422711509
vt 0.875 0.8666666666666667
vt 1 0.8666666666666667
vt 1 0.8
vt 0.875 0.8
vt 0.875 0.8666666666666667
vt 0.875 0.8666666666666667
vt 0.875 0.8
vt 0.875 0.8
vt 1 0.8666666666666667
vt 0.875 0.8666666666666667
vt 0.875 0.8
vt 1 0.8
vt 0.2003068891850906 0.8426040567033631
vt 0 0.8426040567033631
vt 0 0.7901387422711508
vt 0.2003068891850906 0.7901387422711508
vt 0.8125 0.8666666666666667
vt 0.8125 0.8666666666666667
vt 0.8125 0.8
vt 0.8125 0.8
vt 0.875 0.8666666666666667
vt 0.8125 0.8666666666666667
vt 0.8125 0.8
vt 0.875 0.8
vt 0.875 0.8666666666666667
vt 0.875 0.8666666666666667
vt 0.875 0.8
vt 0.875 0.8
vt 1 0.8666666666666667
vt 0.875 0.8666666666666667
vt 0.875 0.8
vt 1 0.8
vt 1.0013875 0.8426040567033631
vt 0.8010806108149094 0.8426040567033631
vt 0.8010806108149094 0.7901387422711509
vt 1.0013875 0.7901387422711509
vt 0.25 0.8666666666666667
vt 0.125 0.8666666666666667
vt 0.125 0.8
vt 0.25 0.8
vt 0.25 0.8666666666666667
vt 0.25 0.8666666666666667
vt 0.25 0.8
vt 0.25 0.8
vt 1.0013875 0.8426040567033631
vt 0.8011197963950303 0.8426040567033631
vt 0.8011197963950303 0.7901387422711508
vt 1.0013875 0.7901387422711508
vt 0.20030688918509115 0.8426040567033631
vt 0 0.8426040567033631
vt 0 0.7901387422711509
vt 0.20030688918509115 0.7901387422711509
vt 0.125 0.8666666666666667
vt 0 0.8666666666666667
vt 0 0.8
vt 0.125 0.8
vt 0.125 0.8666666666666667
vt 0.125 0.8666666666666667
vt 0.125 0.8
vt 0.125 0.8
vt 0.125 0.8666666666666667
vt 0.125 0.8666666666666667
vt 0.125 0.8
vt 0.125 0.8
vt 0 0.8666666666666667
vt 0.125 0.8666666666666667
vt 0.125 0.8
vt 0 0.8
vt 1.0013874999999999 0.8426040567033631
vt 0.8011197963950307 0.8426040567033631
vt 0.8011197963950307 0.7901387422711509
vt 1.0013874999999999 0.7901387422711509
vt 0.20026770360496965 0.8426040567033634
vt 0 0.8426040567033634
vt 0 0.7901387422711508
vt 0.20026770360496965 0.7901387422711508
vt 0.25 0.8666666666666667
vt 0.25 0.8666666666666667
vt 0.25 0.8
vt 0.25 0.8
vt 0.125 0.8666666666666667
vt 0.25 0.8666666666666667
vt 0.25 0.8
vt 0.125 0.8
vt 0.2002677036049696 0.8426040567033631
vt 0 0.8426040567033631
vt 0 0.7901387422711509
vt 0.2002677036049696 0.7901387422711509
vt 0.875 0.8666666666666667
vt 1 0.8666666666666667
vt 1 0.8
vt 0.875 0.8
vt 0.875 0.8666666666666667
vt 0.875 0.8666666666666667
vt 0.875 0.8
vt 0.875 0.8
vt 0.8125 0.8666666666666667
vt 0.875 0.8666666666666667
vt 0.875 0.8
vt 0.8125 0.8
vt 0.8125 0.8666666666666667
vt 0.8125 0.8666666666666667
vt 0.8125 0.8
vt 0.8125 0.8
vt 1.0013874999999999 0.8426040567033634
vt 0.8010806108149092 0.8426040567033634
vt 0.8010806108149092 0.7901387422711508
vt 1.0013874999999999 0.7901387422711508
vt 0.8762189606975153 0.15204560746466944
vt 0.7259814465124241 0.13842421945267247
vt 0.8762189606975153 0.1008613195375323
vt 0.8762189606975153 0.4012567624630181
vt 0.7259814465124241 0.3637232506557786
vt 0.8762189606975153 0.35012145471571543
vt 0.6987768575132065 0.43883435643210866
vt 0.7259814465124241 0.3637232506557786
vt 0.8010512216298177 0.43883435643210866
vt 0.20023831441987877 0.43883435643210866
vt 0.2753766643024847 0.3637232506557786
vt 0.30261064248679337 0.43883435643210866
vt 0.12517833569751513 0.4012567624630181
vt 0.12517833569751513 0.35012145471571543
vt 0.2753766643024847 0.3637232506557786
vt 0.12517833569751513 0.15204560746466944
vt 0.12517833569751513 0.1008613195375323
vt 0.2753766643024847 0.13842421945267247
vt 0.30261064248679337 0.06332780773029278
vt 0.2753766643024847 0.13842421945267247
vt 0.20023831441987877 0.06332780773029278
vt 0.8010512216298177 0.06332780773029278
vt 0.7259814465124241 0.13842421945267247
vt 0.6987768575132065 0.06332780773029278
vt 0.8762189606975153 0.15204560746466944
vt 0.8762189606975153 0.35012145471571543
vt 0.7259814465124241 0.3637232506557786
vt 0.7259814465124241 0.13842421945267247
vt 0.7259814465124241 0.3637232506557786
vt 0.6987768575132065 0.43883435643210866
vt 0.30261064248679337 0.43883435643210866
vt 0.2753766643024847 0.3637232506557786
vt 0.12517833569751513 0.35012145471571543
vt 0.12517833569751513 0.15204560746466944
vt 0.2753766643024847 0.13842421945267247
vt 0.2753766643024847 0.3637232506557786
vt 0.30261064248679337 0.06332780773029278
vt 0.6987768575132065 0.06332780773029278
vt 0.7259814465124241 0.13842421945267247
vt 0.2753766643024847 0.13842421945267247
vt 0.10230375330170201 0.0031590257879655637
vt 0.10227436411661084 0.0031590257879655637
vt 0.20023831441987838 0.3966488840295581
vt 0.20026770360496965 0.3966488840295581
vt 0.8010512216298179 0.3966488840295581
vt 0.8990151719330856 0.0031590257879655637
vt 0.8990445611181763 0.0031590257879655637
vt 0.8010806108149092 0.3966488840295581
vt 0.3025910496967324 0.4491141984617707
vt 0.20026770360496965 0.3966488840295581
vt 0.20023831441987838 0.3966488840295581
vt 0.3025910496967324 0.4491141984617707
vt 0.6987768575132066 0.4491141984617707
vt 0.6987768575132066 0.4491141984617707
vt 0.8010512216298179 0.3966488840295581
vt 0.8010806108149092 0.3966488840295581
vt 0.3025910496967324 0.4491141984617707
vt 0.6987768575132066 0.4491141984617707
vt 0.6987768575132066 0.4491141984617707
vt 0.3025910496967324 0.4491141984617707
vt 0.8125 -0.19999999999999996
vt 0.75 -0.06666666666666665
vt 0.3125 -0.06666666666666665
vt 0.25 -0.19999999999999996
vt 0.9375 -1
vt 0.8125 -0.19999999999999996
vt 0.25 -0.19999999999999996
vt 0.125 -1
vt 0.8010806108149092 0.3966488840295581
vt 0.8990445611181763 0.0031590257879655637
vt 1.0013874999999999 0.0031590257879655637
vt 0.20026770360496965 0.3966488840295581
vt 0 0.0031590257879655637
vt 0.10230375330170201 0.0031590257879655637
vt 0.8011197963950307 0.4491141984617707
vt 0.8011197963950307 0.0031590257879656747
vt 1.0013874999999999 0.0031590257879656747
vt 0.2002677036049696 0.4491141984617707
vt 0 0.0031590257879657857
vt 0.2002677036049696 0.0031590257879657857
vt 0.2002677036049696 0.4491141984617707
vt 0.2002677036049696 0.0031590257879657857
vt 1.0013875 0.0031590257879657857
vt 0.8010806108149094 0.4491141984617707
vt 0.8011197963950307 0.4491141984617707
vt 0.20030688918509115 0.4491141984617707
vt 0 0.0031590257879656747
vt 0.8011197963950307 0.0031590257879656747
vt 0.2003068891850906 0.4491141984617706
vt 0 0.0031590257879655637
vt 1.0013875 0.0031590257879655637
vt 0.8011197963950303 0.4491141984617706
vt 0 0
vt 0.10227436411661124 0.40054525331927904
vt 0 0.40054525331927904
vt 0.8990151719330852 0.40054525331927904
vt 1.0013874999999999 0
vt 1.0013874999999999 0.40054525331927904
vt 0.8990151719330852 0.40054525331927904
vt 0.10227436411661124 0.40054525331927904
vt 0 0
vt 1.0013874999999999 0
vt 0.2002677036049696 0.7901387422711509
vt 0.2002677036049696 0.4491141984617707
vt 0.3025714569066721 0.7901387422711509
vt 0.8010806108149094 0.7901387422711509
vt 0.6987670611181764 0.7901387422711509
vt 0.8010806108149094 0.4491141984617707
vt 0.30262043888182333 0.7901387422711508
vt 0.2003068891850906 0.7901387422711508
vt 0.2003068891850906 0.4491141984617706
vt 0.8011197963950303 0.7901387422711508
vt 0.6988160430933275 0.7901387422711508
vt 0.8011197963950303 0.4491141984617706
vt 0.20030688918509115 0.7901387422711509
vt 0.20030688918509115 0.4491141984617707
vt 0.30261064248679315 0.7901387422711509
vt 0.8011197963950307 0.7901387422711509
vt 0.6987768575132072 0.7901387422711509
vt 0.8011197963950307 0.4491141984617707
vt 0.2753766643024847 0.3637234465764978
vt 0.2753766643024847 0.3186714771646504
vt 0.3655034985814908 0.3186714771646504
vt 0.3655034985814908 0.3637234465764978
vt 0.3655034985814908 0.3637234465764978
vt 0.3655034985814908 0.3186714771646504
vt 0.4556205364654665 0.3186714771646504
vt 0.4556205364654665 0.3637234465764978
vt 0.4556205364654665 0.3637233975963181
vt 0.4556205364654665 0.31867142818447036
vt 0.5457473707444727 0.31867142818447036
vt 0.5457473707444727 0.3637233975963181
vt 0.5457473707444727 0.3637234465764978
vt 0.5457473707444727 0.3186714771646504
vt 0.6358742050234788 0.3186714771646504
vt 0.6358742050234788 0.3637234465764978
vt 0.4556205364654665 0.1384244153733919
vt 0.4556205364654665 0.1834910788391897
vt 0.3655034985814908 0.1834910788391897
vt 0.3655034985814908 0.1384244153733919
vt 0.3655034985814908 0.1384244153733919
vt 0.3655034985814908 0.1834910788391897
vt 0.2753766643024847 0.1834910788391897
vt 0.2753766643024847 0.1384244153733919
vt 0.3655034985814908 0.1834910788391897
vt 0.3655034985814908 0.22854794626902109
vt 0.2753766643024847 0.22854794626902109
vt 0.2753766643024847 0.1834910788391897
vt 0.3655034985814908 0.22854789728884117
vt 0.3655034985814908 0.27360966273665577
vt 0.2753766643024847 0.27360966273665577
vt 0.2753766643024847 0.22854789728884117
vt 0.3655034985814908 0.27360971171683546
vt 0.3655034985814908 0.3186714771646504
vt 0.2753766643024847 0.3186714771646504
vt 0.2753766643024847 0.27360971171683546
vt 0.5457473707444727 0.1384243663932121
vt 0.5457473707444727 0.18349102985901
vt 0.4556205364654665 0.18349102985901
vt 0.4556205364654665 0.1384243663932121
vt 0.6358742050234788 0.1384244153733919
vt 0.6358742050234788 0.1834910788391897
vt 0.5457473707444727 0.1834910788391897
vt 0.5457473707444727 0.1384244153733919
vt 0.7259814465124241 0.1384244153733919
vt 0.7259814465124241 0.1834910788391897
vt 0.6358742050234788 0.1834910788391897
vt 0.6358742050234788 0.1384244153733919
vt 0.7259814465124241 0.1834910788391897
vt 0.7259814465124241 0.22854794626902109
vt 0.6358742050234788 0.22854794626902109
vt 0.6358742050234788 0.1834910788391897
vt 0.7259814465124241 0.22854789728884117
vt 0.7259814465124241 0.27360966273665577
vt 0.6358742050234788 0.27360966273665577
vt 0.6358742050234788 0.22854789728884117
vt 0.7259814465124241 0.27360971171683546
vt 0.7259814465124241 0.3186714771646504
vt 0.6358742050234788 0.3186714771646504
vt 0.6358742050234788 0.27360971171683546
vt 0.726020632092546 1
vt 0.6358840014185093 1
vt 0.6358840014185093 0.9475346855677877
vt 0.726020632092546 0.9475346855677877
vt 0.36550349858149095 1
vt 0.27537666430248475 1
vt 0.27537666430248475 0.9475346855677877
vt 0.36550349858149095 0.9475346855677877
vt 0.375 1
vt 0.375 1
vt 0.375 0.9333333333333333
vt 0.375 0.9333333333333333
vt 0.3125 1
vt 0.375 1
vt 0.375 0.9333333333333333
vt 0.3125 0.9333333333333333
vt 0.6358840014185093 1
vt 0.5457669635345336 1
vt 0.5457669635345336 0.9475346855677877
vt 0.6358840014185093 0.9475346855677877
vt 0.5 1
vt 0.5 1
vt 0.5 0.9333333333333333
vt 0.5 0.9333333333333333
vt 0.375 1
vt 0.5 1
vt 0.5 0.9333333333333333
vt 0.375 0.9333333333333333
vt 0.45562053646546674 1
vt 0.36550349858149095 1
vt 0.36550349858149095 0.9475346855677877
vt 0.45562053646546674 0.9475346855677877
vt 0.375 1
vt 0.375 1
vt 0.375 0.9333333333333333
vt 0.375 0.9333333333333333
vt 0.4556401292555275 1
vt 0.36551329497652174 1
vt 0.36551329497652174 0.9475346855677877
vt 0.4556401292555275 0.9475346855677877
vt 0.375 1
vt 0.3125 1
vt 0.3125 0.9333333333333333
vt 0.375 0.9333333333333333
vt 0.36551329497652174 1
vt 0.27540605348757596 1
vt 0.27540605348757596 0.9475346855677877
vt 0.36551329497652174 0.9475346855677877
vt 0.7260108356975146 1
vt 0.6358840014185084 1
vt 0.6358840014185084 0.9475346855677877
vt 0.7260108356975146 0.9475346855677877
vt 0.5 1
vt 0.375 1
vt 0.375 0.9333333333333333
vt 0.5 0.9333333333333333
vt 0.5 1
vt 0.5 1
vt 0.5 0.9333333333333333
vt 0.5 0.9333333333333333
vt 0.6358840014185084 1
vt 0.5457669635345328 1
vt 0.5457669635345328 0.9475346855677877
vt 0.6358840014185084 0.9475346855677877
vt 0.5625 1
vt 0.5625 1
vt 0.5625 0.9333333333333333
vt 0.5625 0.9333333333333333
vt 0.6875 1
vt 0.5625 1
vt 0.5625 0.9333333333333333
vt 0.6875 0.9333333333333333
vt 0.45564012925552716 1
vt 0.36551329497652063 1
vt 0.36551329497652063 0.9475346855677877
vt 0.45564012925552716 0.9475346855677877
vt 0.7259814465124241 1
vt 0.6358742050234787 1
vt 0.6358742050234787 0.9475346855677877
vt 0.7259814465124241 0.9475346855677877
vt 0.36551329497652063 1
vt 0.27540605348757574 1
vt 0.27540605348757574 0.9475346855677877
vt 0.36551329497652063 0.9475346855677877
vt 0.6358742050234787 1
vt 0.5457473707444725 1
vt 0.5457473707444725 0.9475346855677877
vt 0.6358742050234787 0.9475346855677877
vt 0.6875 1
vt 0.6875 1
vt 0.6875 0.9333333333333333
vt 0.6875 0.9333333333333333
vt 0.75 1
vt 0.6875 1
vt 0.6875 0.9333333333333333
vt 0.75 0.9333333333333333
vt 0.5625 1
vt 0.6875 1
vt 0.6875 0.9333333333333333
vt 0.5625 0.9333333333333333
vt 0.5625 1
vt 0.5625 1
vt 0.5625 0.9333333333333333
vt 0.5625 0.9333333333333333
vt 0.6358742050234786 1
vt 0.5457473707444724 1
vt 0.5457473707444724 0.9475346855677877
vt 0.6358742050234786 0.9475346855677877
vt 0.365503498581491 1
vt 0.27536686790745446 1
vt 0.27536686790745446 0.9475346855677877
vt 0.365503498581491 0.9475346855677877
vt 0.7259814465124239 1
vt 0.6358742050234786 1
vt 0.6358742050234786 0.9475346855677877
vt 0.7259814465124239 0.9475346855677877
vt 0.4556205364654668 1
vt 0.365503498581491 1
vt 0.365503498581491 0.9475346855677877
vt 0.4556205364654668 0.9475346855677877
vt 0.6875 1
vt 0.75 1
vt 0.75 0.9333333333333333
vt 0.6875 0.9333333333333333
vt 0.6875 1
vt 0.6875 1
vt 0.6875 0.9333333333333333
vt 0.6875 0.9333333333333333
vt 0.4556205364654665 0.18349102985901
vt 0.3655034985814908 0.22854789728884117
vt 0.3655034985814908 0.18349102985901
vt 0.3655034985814908 0.31867142818447036
vt 0.3655034985814908 0.27360966273665577
vt 0.4556205364654665 0.31867142818447036
vt 0.4556205364654665 0.31867142818447036
vt 0.3655034985814908 0.27360966273665577
vt 0.3655034985814908 0.22854789728884117
vt 0.4556205364654665 0.18349102985901
vt 0.6358742050234788 0.31867142818447036
vt 0.5457473707444727 0.31867142818447036
vt 0.6358742050234788 0.27360966273665577
vt 0.6358742050234788 0.18349102985901
vt 0.6358742050234788 0.22854789728884117
vt 0.5457473707444727 0.18349102985901
vt 0.6358742050234788 0.22854789728884117
vt 0.6358742050234788 0.27360966273665577
vt 0.5457473707444727 0.31867142818447036
vt 0.5457473707444727 0.18349102985901
vt 0.5457473707444727 0.18349102985901
vt 0.5457473707444727 0.31867142818447036
vt 0.4556205364654665 0.31867142818447036
vt 0.4556205364654665 0.18349102985901
vt 0.5457669635345336 0.9475346855677877
vt 0.4556401292555275 0.9475346855677877
vt 0.27540605348757596 0.7901387422711509
vt 0.726020632092546 0.7901387422711509
vt 0.5457473707444724 0.9475346855677877
vt 0.45562053646546674 0.9475346855677877
vt 0.27537666430248475 0.7901387422711508
vt 0.7259814465124239 0.7901387422711508
vt 0.4556205364654668 0.9475346855677877
vt 0.27536686790745446 0.7901387422711509
vt 0.7259814465124241 0.7901387422711509
vt 0.5457473707444725 0.9475346855677877
vt 0.5457669635345328 0.9475346855677877
vt 0.45564012925552716 0.9475346855677877
vt 0.27540605348757574 0.7901387422711508
vt 0.7260108356975146 0.7901387422711508
vt 0.7260108356975146 0.7901387422711508
vt 0.6358840014185084 0.9475346855677877
vt 0.5457669635345328 0.9475346855677877
vt 0.6358840014185084 0.9475346855677877
vt 0.7260108356975146 0.7901387422711508
vt 0.7260108356975146 0.9475346855677877
vt 0.27540605348757596 0.9475346855677877
vt 0.27540605348757596 0.7901387422711509
vt 0.36551329497652174 0.9475346855677877
vt 0.36551329497652174 0.9475346855677877
vt 0.27540605348757596 0.7901387422711509
vt 0.4556401292555275 0.9475346855677877
vt 0.5457669635345336 0.9475346855677877
vt 0.726020632092546 0.7901387422711509
vt 0.6358840014185093 0.9475346855677877
vt 0.6358840014185093 0.9475346855677877
vt 0.726020632092546 0.7901387422711509
vt 0.726020632092546 0.9475346855677877
vt 0.27537666430248475 0.9475346855677877
vt 0.27537666430248475 0.7901387422711508
vt 0.36550349858149095 0.9475346855677877
vt 0.36550349858149095 0.9475346855677877
vt 0.27537666430248475 0.7901387422711508
vt 0.45562053646546674 0.9475346855677877
vt 0.5457473707444724 0.9475346855677877
vt 0.7259814465124239 0.7901387422711508
vt 0.6358742050234786 0.9475346855677877
vt 0.6358742050234786 0.9475346855677877
vt 0.7259814465124239 0.7901387422711508
vt 0.7259814465124239 0.9475346855677877
vt 0.27536686790745446 0.9475346855677877
vt 0.27536686790745446 0.7901387422711509
vt 0.365503498581491 0.9475346855677877
vt 0.365503498581491 0.9475346855677877
vt 0.27536686790745446 0.7901387422711509
vt 0.4556205364654668 0.9475346855677877
vt 0.5457473707444725 0.9475346855677877
vt 0.7259814465124241 0.7901387422711509
vt 0.6358742050234787 0.9475346855677877
vt 0.6358742050234787 0.9475346855677877
vt 0.7259814465124241 0.7901387422711509
vt 0.7259814465124241 0.9475346855677877
vt 0.27540605348757574 0.9475346855677877
vt 0.27540605348757574 0.7901387422711508
vt 0.36551329497652063 0.9475346855677877
vt 0.36551329497652063 0.9475346855677877
vt 0.27540605348757574 0.7901387422711508
vt 0.45564012925552716 0.9475346855677877
vn 1 0 0
vn 0 0 -1
vn -1 0 0
vn 0 0 1
vn 0 1 0
vn 0 1 0
vn 0 1 0
vn 0 1 0
vn 0 1 0
vn 0 1 0
vn 0 1 0
vn 0 1 0
vn 0 1 0
vn 0 1 0
vn 0 0 -1
vn 0 0 -1
vn 0 0 1
vn 0 0 1
vn 0 0 1
vn 0 0 1
vn 0 1 0
vn 0 1 0
vn 0 1 0
vn 0 1 0
vn 0 1 0
vn 0 1 0
vn 0 1 0
vn 0 1 0
vn 0 1 0
vn -1 0 0
vn -1 0 0
vn 0 -1 0
vn 0 -1 0
vn 1 0 0
vn 1 0 0
vn 0 1 0
vn 0 1 0
vn 0 1 0
vn 0 1 0
vn 0 1 0
vn 0 1 0
vn 0 0 1
vn 1 0 0
vn 0 0 -1
vn -1 0 0
vn 1 0 0
vn 0 0 -1
vn -1 0 0
vn 0 0 1
vn 0 0 1
vn 0.9999999969377248 0 -0.00007825950829049533
vn 0 0 -1
vn -0.9999999510035983 0 0.0003130380187835043
vn 1 0 0
vn 0.0000782656333204563 0 -0.9999999969372455
vn -1 0 0
vn -0.00031306251889997173 0 0.9999999509959284
vn 0 0 -1
vn -0.9999999724395232 0 -0.00023477851912048596
vn 0 0 1
vn -1 0 0
vn 0.0002347968942090183 0 0.9999999724352089
vn 1 0 0
vn 0 0 1
vn 0.9999999724395232 0 0.00023477851912005155
vn 0 0 -1
vn -1 0 0
vn -0.00023477851912048596 0 0.9999999724395232
vn 1 0 0
vn 1 0 0
vn 0.00023477851912005155 0 -0.9999999724395232
vn -1 0 0
vn 0 0 1
vn 0.9999999724352089 0 -0.00023479689420858387
vn 0 0 -1
vn 1 0 0
vn -0.00023479689420858387 0 -0.9999999724352089
vn -1 0 0
vn 0 0 -1
vn -0.9999999724352089 0 0.0002347968942090183
vn 0 0 1
vn 0 1 0
vn 0 1 0
vn 0 1 0
vn 0 1 0
vn 0 1 0
vn 0 1 0
vn 0 1 0
vn 0 1 0
vn 0 1 0
vn 0 1 0
vn 0 1 0
vn 0 1 0
vn 0.9912278901958149 -0.13216371869277538 -0.00014546219589054536
vn -0.9912278901958149 -0.13216371869277535 0.00014546219589027618
vn 0.6915523036824955 -0.7223263811963659 -0.0001014849538250727
vn -0.6917250549527818 -0.7221609573707035 0
vn 0 -1 0
vn 0 -0.00029999998649974557 0.9999999550000032
vn 0 0 1
vn 0 0 1
vn 0 0 1
vn -1 0 0
vn 1 0 0
vn 1 0 0
vn -1 0 0
vn 0 0 -1
vn 0 -1 0
vn 0 -1 0
vn 0 -1 0
vn 1 0 0
vn 1 0 0
vn 0 0 -1
vn 0 0 -1
vn -1 0 0
vn -1 0 0
vn 0 1 0
vn 0 1 0
vn 0 1 0
vn 0 1 0
vn 0 1 0
vn 0 1 0
vn 0 1 0
vn 0 1 0
vn 0 1 0
vn 0 1 0
vn 0 1 0
vn 0 1 0
vn 0 1 0
vn 0 1 0
vn 0 1 0
vn -1 0 0
vn 0 0 1
vn 1 0 0
vn 0 0 -1
vn -1 0 0
vn 1 0 0
vn 0 0 -1
vn 0 0 1
vn 1 0 0
vn -1 0 0
vn 0 0 1
vn -1 0 0
vn 0 0 -1
vn 0 0 1
vn 1 0 0
vn 0 0 -1
vn -1 0 0
vn 0 0 1
vn 0 0 -1
vn 1 0 0
vn 0 0 -1
vn 1 0 0
vn -1 0 0
vn 0 0 1
vn 0 0 -1
vn -1 0 0
vn 0 0 1
vn 1 0 0
vn 0 0 1
vn 1 0 0
vn 0 0 -1
vn -1 0 0
vn 0 1 0
vn 0 1 0
vn 0 1 0
vn 0 1 0
vn 0 1 0
vn 0 1 0
vn 0 1 0
vn -1 0 0
vn 0 0 1
vn 1 0 0
vn 0 0 -1
vn 0 0 -1
vn 0 0 -1
vn -1 0 0
vn -1 0 0
vn -1 0 0
vn -1 0 0
vn 0 0 1
vn 0 0 1
vn 0 0 1
vn 0 0 1
vn 1 0 0
vn 1 0 0
vn 1 0 0
vn 1 0 0
vn 0 0 -1
vn 0 0 -1
usemtl m_65ef4ab3-3db6-9dbf-8972-fdccca9db2f4
f 45/1/1 100/2/1 99/3/1 4/4/1
f 4/5/2 99/6/2 108/7/2 21/8/2
f 3/9/3 97/10/3 96/11/3 37/12/3
f 27/13/4 102/14/4 1/15/4 2/16/4
f 17/17/5 51/18/5 49/19/5 7/20/5
f 89/21/6 91/22/6 90/23/6 86/24/6
f 71/25/7 73/26/7 72/27/7 68/28/7
f 68/29/8 70/30/8 69/31/8 71/32/8
f 77/33/9 79/34/9 78/35/9 74/36/9
f 9/37/10 33/38/10 29/39/10 11/40/10
f 74/41/11 75/42/11 76/43/11 77/44/11
f 11/45/12 13/46/12 19/47/12 18/48/12
f 60/49/13 61/50/13 62/51/13 63/52/13
f 15/53/14 17/54/14 21/55/14 20/56/14
f 18/57/15 98/58/15 97/59/15 3/60/15
f 20/61/16 108/62/16 98/63/16 19/64/16
f 5/65/17 107/66/17 94/67/17 24/68/17
f 24/69/18 94/70/18 93/71/18 25/72/18
f 25/73/19 93/74/19 92/75/19 26/76/19
f 26/77/20 92/78/20 102/79/20 27/80/20
f 83/81/21 84/82/21 85/83/21 80/84/21
f 24/85/22 25/86/22 12/87/22 10/88/22
f 52/89/23 53/90/23 54/91/23 55/92/23
f 26/93/24 27/94/24 16/95/24 14/96/24
f 10/97/25 28/98/25 30/99/25 8/100/25
f 80/101/26 81/102/26 82/103/26 83/104/26
f 30/105/27 31/106/27 35/107/27 34/108/27
f 56/109/28 57/110/28 58/111/28 59/112/28
f 32/113/29 33/114/29 37/115/29 36/116/29
f 34/117/30 95/118/30 107/119/30 5/120/30
f 36/121/31 96/122/31 95/123/31 35/124/31
f 107/125/32 38/126/32 39/127/32 22/128/32
f 23/129/33 40/130/33 41/131/33 1/132/33
f 2/133/34 1/134/34 101/135/34 42/136/34
f 43/137/35 101/138/35 100/139/35 44/140/35
f 86/141/36 87/142/36 88/143/36 89/144/36
f 42/145/37 43/146/37 47/147/37 46/148/37
f 64/149/38 65/150/38 66/151/38 67/152/38
f 44/153/39 45/154/39 49/155/39 48/156/39
f 6/157/40 46/158/40 50/159/40 16/160/40
f 159/161/41 157/162/41 160/163/41 161/164/41
f 53/165/42 52/166/42 25/167/42 26/168/42
f 54/169/43 53/170/43 26/171/43 14/172/43
f 55/173/44 54/174/44 14/175/44 12/176/44
f 52/177/45 55/178/45 12/179/45 25/180/45
f 57/181/46 56/182/46 31/183/46 32/184/46
f 58/185/47 57/186/47 32/187/47 36/188/47
f 59/189/48 58/190/48 36/191/48 35/192/48
f 56/193/49 59/194/49 35/195/49 31/196/49
f 61/197/50 60/198/50 13/199/50 15/200/50
f 62/201/51 61/202/51 15/203/51 20/204/51
f 63/205/52 62/206/52 20/207/52 19/208/52
f 60/209/53 63/210/53 19/211/53 13/212/53
f 65/213/54 64/214/54 43/215/54 44/216/54
f 66/217/55 65/218/55 44/219/55 48/220/55
f 67/221/56 66/222/56 48/223/56 47/224/56
f 64/225/57 67/226/57 47/227/57 43/228/57
f 70/229/58 68/230/58 4/231/58 21/232/58
f 69/233/59 70/234/59 21/235/59 17/236/59
f 71/237/60 69/238/60 17/239/60 7/240/60
f 73/241/61 71/242/61 7/243/61 49/244/61
f 72/245/62 73/246/62 49/247/62 45/248/62
f 68/249/63 72/250/63 45/251/63 4/252/63
f 75/253/64 74/254/64 9/255/64 11/256/64
f 76/257/65 75/258/65 11/259/65 18/260/65
f 77/261/66 76/262/66 18/263/66 3/264/66
f 79/265/67 77/266/67 3/267/67 37/268/67
f 78/269/68 79/270/68 37/271/68 33/272/68
f 74/273/69 78/274/69 33/275/69 9/276/69
f 81/277/70 80/278/70 8/279/70 30/280/70
f 82/281/71 81/282/71 30/283/71 34/284/71
f 83/285/72 82/286/72 34/287/72 5/288/72
f 84/289/73 83/290/73 5/291/73 24/292/73
f 85/293/74 84/294/74 24/295/74 10/296/74
f 80/297/75 85/298/75 10/299/75 8/300/75
f 87/301/76 86/302/76 2/303/76 42/304/76
f 88/305/77 87/306/77 42/307/77 46/308/77
f 89/309/78 88/310/78 46/311/78 6/312/78
f 91/313/79 89/314/79 6/315/79 16/316/79
f 90/317/80 91/318/80 16/319/80 27/320/80
f 86/321/81 90/322/81 27/323/81 2/324/81
f 47/325/82 50/326/82 46/327/82
f 49/328/83 51/329/83 48/330/83
f 15/331/84 51/332/84 17/333/84
f 11/334/85 29/335/85 13/336/85
f 33/337/86 32/338/86 29/339/86
f 31/340/87 30/341/87 28/342/87
f 12/343/88 28/344/88 10/345/88
f 16/346/89 50/347/89 14/348/89
f 47/349/90 48/350/90 51/351/90 50/352/90
f 51/353/91 15/354/91 13/355/91 29/356/91
f 32/357/92 31/358/92 28/359/92 29/360/92
f 12/361/93 14/362/93 50/363/93 28/364/93
f 22/365/94 39/366/94 104/367/94 94/368/94
f 103/369/95 40/370/95 23/371/95 102/372/95
f 93/373/96 94/374/96 104/375/96 106/376/96
f 92/377/97 105/378/97 103/379/97 102/380/97
f 106/381/98 105/382/98 92/383/98 93/384/98
usemtl m_7399c8b3-64b0-58c0-a2f1-c01879deb2a7
f 103/385/99 105/386/99 106/387/99 104/388/99
f 40/389/100 103/390/100 104/391/100 39/392/100
usemtl m_65ef4ab3-3db6-9dbf-8972-fdccca9db2f4
f 102/393/101 23/394/101 1/395/101
f 94/396/102 107/397/102 22/398/102
f 95/399/103 38/400/103 107/401/103
f 101/402/104 1/403/104 41/404/104
f 101/405/105 41/406/105 99/407/105 100/408/105
f 95/409/106 96/410/106 97/411/106 38/412/106
f 108/413/107 99/414/107 97/415/107 98/416/107
f 97/417/108 39/418/108 38/419/108
f 40/420/109 99/421/109 41/422/109
f 40/423/110 39/424/110 97/425/110 99/426/110
f 42/427/111 101/428/111 43/429/111
f 45/430/112 44/431/112 100/432/112
f 20/433/113 21/434/113 108/435/113
f 18/436/114 19/437/114 98/438/114
f 37/439/115 96/440/115 36/441/115
f 34/442/116 35/443/116 95/444/116
f 152/445/117 150/446/117 149/447/117 153/448/117
f 153/449/118 149/450/118 154/451/118 155/452/118
f 115/453/119 124/454/119 131/455/119 117/456/119
f 156/457/120 158/458/120 157/459/120 159/460/120
f 146/461/121 147/462/121 141/463/121 140/464/121
f 140/465/122 141/466/122 142/467/122 143/468/122
f 141/469/123 144/470/123 145/471/123 142/472/123
f 122/473/124 123/474/124 128/475/124 127/476/124
f 148/477/125 149/478/125 150/479/125 151/480/125
f 116/481/126 130/482/126 120/483/126 114/484/126
f 164/485/127 165/486/127 166/487/127 167/488/127
f 168/489/128 169/490/128 165/491/128 164/492/128
f 169/493/129 170/494/129 171/495/129 165/496/129
f 137/497/130 138/498/130 134/499/130 133/500/130
f 162/501/131 160/502/131 157/503/131 163/504/131
f 143/505/132 142/506/132 126/507/132 172/508/132
f 140/509/133 143/510/133 172/511/133 112/512/133
f 144/513/134 141/514/134 121/515/134 122/516/134
f 145/517/135 144/518/135 122/519/135 127/520/135
f 142/521/136 145/522/136 127/523/136 126/524/136
f 147/525/137 146/526/137 114/527/137 120/528/137
f 141/529/138 147/530/138 120/531/138 121/532/138
f 146/533/139 140/534/139 112/535/139 114/536/139
f 149/537/140 148/538/140 123/539/140 125/540/140
f 151/541/141 150/542/141 129/543/141 128/544/141
f 148/545/142 151/546/142 128/547/142 123/548/142
f 150/549/143 152/550/143 109/551/143 129/552/143
f 152/553/144 153/554/144 113/555/144 109/556/144
f 154/557/145 149/558/145 125/559/145 124/560/145
f 155/561/146 154/562/146 124/563/146 115/564/146
f 153/565/147 155/566/147 115/567/147 113/568/147
f 158/569/148 156/570/148 117/571/148 131/572/148
f 157/573/149 158/574/149 131/575/149 135/576/149
f 156/577/150 159/578/150 119/579/150 117/580/150
f 161/581/151 160/582/151 139/583/151 111/584/151
f 159/585/152 161/586/152 111/587/152 119/588/152
f 160/589/153 162/590/153 138/591/153 139/592/153
f 163/593/154 157/594/154 135/595/154 134/596/154
f 162/597/155 163/598/155 134/599/155 138/600/155
f 166/601/156 165/602/156 132/603/156 130/604/156
f 167/605/157 166/606/157 130/607/157 116/608/157
f 164/609/158 167/610/158 116/611/158 118/612/158
f 169/613/159 168/614/159 110/615/159 136/616/159
f 168/617/160 164/618/160 118/619/160 110/620/160
f 170/621/161 169/622/161 136/623/161 137/624/161
f 171/625/162 170/626/162 137/627/162 133/628/162
f 165/629/163 171/630/163 133/631/163 132/632/163
f 120/633/164 122/634/164 121/635/164
f 125/636/165 123/637/165 124/638/165
f 124/639/166 123/640/166 122/641/166 120/642/166
f 135/643/167 131/644/167 134/645/167
f 132/646/168 133/647/168 130/648/168
f 133/649/169 134/650/169 131/651/169 130/652/169
f 130/653/170 131/654/170 124/655/170 120/656/170
f 127/657/171 128/658/171 29/659/171 28/660/171
f 116/661/172 114/662/172 28/663/172 50/664/172
f 137/665/173 50/666/173 51/667/173 138/668/173
f 115/669/174 117/670/174 51/671/174 29/672/174
f 29/673/175 113/674/175 115/675/175
f 113/676/176 29/677/176 109/678/176
f 109/679/177 29/680/177 129/681/177
f 129/682/178 29/683/178 128/684/178
f 127/685/179 28/686/179 126/687/179
f 126/688/180 28/689/180 172/690/180
f 172/691/181 28/692/181 112/693/181
f 112/694/182 28/695/182 114/696/182
f 116/697/183 50/698/183 118/699/183
f 118/700/184 50/701/184 110/702/184
f 110/703/185 50/704/185 136/705/185
f 136/706/186 50/707/186 137/708/186
f 138/709/187 51/710/187 139/711/187
f 139/712/188 51/713/188 111/714/188
f 111/715/189 51/716/189 119/717/189
f 119/718/190 51/719/190 117/720/190