# Made in Blockbench 4.12.4
mtllib TanqueEnemigo.mtl

o Tanque
v -0.01596875 0.004687500000000001 -0.01596875
v 0.01596875 0.004687500000000001 0.01596875
v 0.01596875 0.004687500000000001 -0.01596875
v 0.009721875 0.018750000000000003 -0.0125
v -0.009721875 0.018750000000000003 0.0125
v -0.009721875 0.018750000000000003 -0.0125
v 0.00625 0.018750000000000003 -0.007985625
v -0.00625 0.018750000000000003 0.007985625
v 0.00625 0.018750000000000003 0.007985625
v -0.00625 0.018750000000000003 -0.007985625
v 0.002430625 0.025 -0.003993125
v -0.002430625 0.025 0.00399375
v 0.002430625 0.025 0.00399375
v -0.002430625 0.025 -0.003993125
v 0.009721875 0.018750000000000003 0.0125
v 0.01596875 0.0125 -0.015970625
v 0.01596875 0.0125 0.01597
v -0.01596875 0.0125 0.01597
v -0.01596875 0.0125 -0.015970625
v 0.02221875 0.0015625000000000014 -0.0173625
v -0.02221875 0.0015625000000000014 -0.0173625
v -0.02221875 0.0015625000000000014 0.0173625
v -0.01596875 0.0015625000000000014 -0.0173625
v -0.02221875 0.0171875 -0.013076875
v -0.02221875 0.0171875 0.013080625
v 0.02221875 0.0171875 -0.013076875
v 0.02221875 0.0171875 0.013080625
v 0.01596875 0.0171875 -0.0130775
v 0.01596875 0.0171875 0.01308125
v -0.01596875 0.0171875 -0.0130775
v -0.01596875 0.0171875 0.01308125
v -0.02221875 0.0121875 -0.020485
v -0.01596875 0.0121875 -0.0204875
v 0.01596875 0.0121875 -0.0204875
v 0.02221875 0.0121875 -0.020485
v 0.02221875 0.0121875 0.020485
v 0.01596875 0.0121875 0.0204875
v -0.01596875 0.0121875 0.0204875
v -0.02221875 0.0121875 0.020485
v 0.001215 0.0234375 0.004991875
v -0.001215625 0.0234375 0.004991875
v -0.003125 0.0203125 0.0069875
v 0.003125 0.0203125 0.0069875
v 0.02221875 0.0015625000000000014 0.0173625
v -0.01596875 0.0015625000000000014 0.0173625
v -0.01596875 0.004687500000000001 0.01596875
v 0.01596875 0.0015625000000000014 0.0173625
v 0.01596875 0.0015625000000000014 -0.0173625
v -0.003125 0.020303125 0.016861875
v -0.001215625 0.023428125 0.0168625
v 0.001215 0.023428125 0.0168625
v 0.003125 0.020303125 0.016861875
v -0.004215 0.019682500000000002 0.020484375
v -0.004215 0.019691875 0.01686
v -0.001826875 0.024518125 0.016865625
v -0.001826875 0.024508750000000003 0.02049
v 0.001826875 0.024518125 0.016865625
v 0.001826875 0.024508750000000003 0.02049
v 0.004215 0.019691875 0.01686
v 0.004215 0.019682500000000002 0.020484375
vt 0.5625 0.42951249999999996
vt 0.5673625 0.4375
vt 0.5770875 0.4375
vt 0.58194375 0.42951249999999996
vt 0.5625 0.43350625
vt 0.56493125 0.4375
vt 0.56979375 0.4375
vt 0.572225 0.43350625
vt 0.031940625 0.99373375
vt 0 0.99375
vt 0 1
vt 0.03194375 0.99998375
vt 0.003990625 0.996875
vt 0.00798125 0.996875
vt 0.00798125 0.9953125
vt 0.003990625 0.99453125
vt 0.000003125 0.996875
vt 0.003995625 0.996875
vt 0.00399375 0.99453125
vt 0 0.9953125
vt 0.003990625 0.996875
vt 0.00798125 0.996875
vt 0.00798125 0.9953125
vt 0.003990625 0.99453125
vt 0 0.996875
vt 0.003990625 0.996875
vt 0.003990625 0.99453125
vt 0 0.9953125
vt 0.01197375 0.99921875
vt 0.013303125 1
vt 0.01862625 1
vt 0.01995875 0.99921875
vt 0.01064375 0.9984375
vt 0.01197375 0.99921875
vt 0.01995875 0.99921875
vt 0.021290625 0.9984375
vt 0.0638875 0.957404375
vt 0 0.957404375
vt 0 0.978701875
vt 0.0638875 0.978701875
vt 0.019963125 0.99921875
vt 0.02129375 0.9984375
vt 0.010646875 0.9984375
vt 0.011976875 0.99921875
vt 0.018631875 1
vt 0.019963125 0.99921875
vt 0.011976875 0.99921875
vt 0.013306875 1
vt 0.019963125 0.99921875
vt 0.018631875 0.9984375
vt 0.013306875 0.9984375
vt 0.011976875 0.99921875
vt 0.013305625 0.9984375
vt 0.011974375 0.99921875
vt 0.019960625 0.99921875
vt 0.018630625 0.9984375
vt 0.00625 1
vt 0.00625 0.99106875
vt 0 0.99106875
vt 0 1
vt 0.00625 0.99999375
vt 0.00625 0.9910625
vt 0 0.9910625
vt 0 1
vt 0 0.9910625
vt 0 1
vt 0.00625 1
vt 0.00625 0.9910625
vt 0 0.9910625
vt 0 1
vt 0.00625 1
vt 0.00625 0.9910625
vt 0.004529375 0.995523125
vt 0 0.995523125
vt 0.00774 1
vt 0 0.99449125
vt 0 1
vt 0.003680625 0.991851875
vt 0 0.994494375
vt 0 1
vt 0.00368375 0.99185875
vt 0 0.995523125
vt 0.00773375 1
vt 0.004529375 0.995523125
vt 0.00625 1
vt 0.02569375 1
vt 0.0319375 0.99285
vt 0 0.99285
vt 0.01944375 1
vt 0.015975 0.9954875
vt 0.003475 0.9954875
vt 0 1
vt 0.03125 0.996325
vt 0.03125 0.9999875
vt 0.0625 1
vt 0.0625 0.9963375
vt 0.002425 0.96875
vt 0 0.96875
vt 0 1
vt 0.002425 1
vt 0.03125 0.9999875
vt 0.03125 0.996325
vt 0 0.9963375
vt 0 1
vt 0.00625 0.96875
vt 0 0.96875
vt 0 1
vt 0.00625 1
vt 0.001925625 0.99165625
vt 0 0.99473875
vt 0 0.998909375
vt 0.001934375 1
vt 0.0048625 1
vt 0.00364375 0.99814375
vt 0.00121875 0.99814375
vt 0 1
vt 0.00834375 1
vt 0.007253125 0.998065625
vt 0.0030825 0.998065625
vt 0 0.999991875
vt 0 0.99814375
vt 0.003125 1
vt 0.009375 1
vt 0.0125 0.99814375
vt 0.034725 0.984375
vt 0 0.984375
vt 0.0042875 1
vt 0.03044375 1
vt 0 1
vt 0.005821875 0.993220625
vt 0 0.983799375
vt 0 0.997295
vt 0.008521875 1
vt 0 0.98622
vt 0.034725 0.984375
vt 0 0.984375
vt 0.00428125 1
vt 0.0304375 1
vt 0 1
vt 0.005825 0.993216875
vt 0 0.9837975
vt 0 0.997293125
vt 0.00851625 1
vt 0 0.986218125
vt 0.03125 0.9999875
vt 0.03125 0.996325
vt 0 0.9963125
vt 0 0.999975
vt 0 0.96875
vt 0.002425 0.96875
vt 0.002425 0.9375
vt 0 0.9375
vt 0.03125 0.996325
vt 0.03125 0.9999875
vt 0.0625 0.999975
vt 0.0625 0.9963125
vt 0 0.96875
vt 0.00625 0.96875
vt 0.00625 0.9375
vt 0 0.9375
vt 0.001248125 0.9969675
vt 0 0.9969675
vt 0.004448125 1
vt 0.004448125 0.998751875
vt 0.0006125 0.99890625
vt 0 1
vt 0.00365 1
vt 0.0030375 0.99890625
vt 0.001795 1
vt 0.00304875 1
vt 0 0.99555625
vt 0.000003125 0.996804375
vt 0.0073375 1
vt 0.008425 0.99939375
vt 0 0.99939375
vt 0.0010875 1
vt 0 1
vt 0.0319375 1
vt 0.0319375 0.99375
vt 0 0.99375
vt 0.00451875 0.9996875
vt 0.00139375 0.9890625
vt 0 0.99375
vt 0 1
vt 0 0.9996875
vt 0.00451875 1
vt 0.00451875 0.99375
vt 0.003125 0.9890625
vt 0 1
vt 0.0319375 1
vt 0.0319375 0.99375
vt 0 0.99375
vt 0 1
vt 0.00451875 0.9996875
vt 0.00139375 0.9890625
vt 0 0.99375
vt 0.003125 0.9890625
vt 0 0.9996875
vt 0.00451875 1
vt 0.00451875 0.99375
vt 0.0060375 1
vt 0.008425 0.995175
vt 0 0.995175
vt 0.0023875 1
vt 0.0319375 0.9911625
vt 0 0.9911625
vt 0.00346875 1
vt 0.02846875 1
vt 0.00346875 1
vt 0.02846875 1
vt 0.0319375 0.9911625
vt 0 0.9911625
vt 0.02904375 1
vt 0.0319375 0.9953125
vt 0 0.9953125
vt 0.0028875 1
vt 0.02905 1
vt 0.0319375 0.9953125
vt 0 0.9953125
vt 0.00289375 1
vt 0.00346875 1
vt 0.00346875 0.975
vt 0 0.9795125
vt 0 0.9954875
vt 0.003475 0.9795125
vt 0 0.975
vt 0 1
vt 0.003475 0.9954875
vt 0 0.9920125
vt 0 1
vt 0.0048625 1
vt 0.0048625 0.9920125
vt 0.015975 0.992675
vt 0 0.992675
vt 0.00399375 1
vt 0.01198125 1
vt 0 0.992675
vt 0.00399375 1
vt 0.01198125 1
vt 0.015975 0.992675
vn 0 1 0
vn 0 0.5383360801258479 -0.8427302444048967
vn 0 0.4854721953256998 -0.8742521075557359
vn -0.000383770607357344 -0.28195852269971083 0.9594265183937317
vn -0.00038374617237290997 -0.2821663032154843 -0.9593654309326466
vn 0.000383770607357344 -0.28195852269971083 -0.9594265183937317
vn 0.00038374617237290997 -0.2821663032154843 0.9593654309326466
vn 0 -1 0
vn 1 0 0
vn 0 -1 0
vn -1 0 0
vn 0 -1 0
vn 0 1 0
vn 0 1 0
vn 0.00022381316040627494 0.8288081096299157 0.559532901015977
vn -0.00022385208775474615 0.8287424011349531 0.5596302193871551
vn -0.00005594356219077771 0.8288738033086406 -0.5594356219074601
vn 0.00005593383557866522 0.8289394432753487 -0.5593383557863353
vn 1 0 0
vn -1 0 0
vn 1 0 0
vn -1 0 0
vn 0 0.48540537051886673 0.8742892120296588
vn 0 1 0
vn -0.8533239819627025 0.5213808706255753 0.00041176818087635195
vn 0 0.9999996881360446 0.0007897644038351916
vn 0.8532480248990375 0.5215050937920699 0.0004951311099994534
vn 0 -0.9999995492943208 -0.0009494267510231815
vn 0.00012135929952846609 0.5381636875427275 0.8428403352250853
vn 0 0.538336080125848 0.8427302444048966
vn 0.00012133214231947658 0.5382690346732367 0.8427730605509726
vn 0 0.5383360801258479 0.8427302444048966
vn 1 0 0
vn 1 0 0
vn 1 0 0
vn -1 0 0
vn -1 0 0
vn -1 0 0
vn -0.8962765078944369 0.4434941999708277 0.0011471655457082725
vn 0 0.9999966546302493 0.002586644217874608
vn 0.8962765078944368 0.44349419997082773 0.0011471655457083582
vn 0 -0.9999966546302494 -0.0025866442178744914
vn 0.0014762223492650792 0.0004350354500456508 -0.9999988157551651
vn 0 0.002866960694551698 -0.999995890259743
vn 0.0016109723455540543 0.00196263873607757 -0.999996776403451
vn 0 0.003067470230985503 -0.9999952953021239
vn 0 -0.00023999999308779626 -0.9999999712000013
vn -1 0 0
vn 1 0 0
vn 0 -0.00015999999795216006 0.9999999872000004
vn 1 0 0
vn -1 0 0
vn 0 -0.001165500373898126 0.9999993208042087
vn -0.7072835799734023 0.7069299381834157 0
vn 0.7072835799734024 0.7069299381834157 0
vn -1 0 0
vn 1 0 0
vn 0 1 0
vn 0 1 0
vn 0 1 0
vn -0.8532860521168788 0.5214431064486246 0
vn 0.8532860521168788 0.5214431064486245 0
usemtl none
f 6/1/1 10/2/1 7/3/1 4/4/1
f 10/5/2 14/6/2 11/7/2 7/8/2
f 16/9/3 19/10/3 6/11/3 4/12/3
f 38/13/4 39/14/4 22/15/4 45/16/4
f 32/17/5 33/18/5 23/19/5 21/20/5
f 34/21/6 35/22/6 20/23/6 48/24/6
f 36/25/7 37/26/7 47/27/7 44/28/7
f 45/29/8 22/30/8 21/31/8 23/32/8
f 46/33/9 45/34/9 23/35/9 1/36/9
f 2/37/10 46/38/10 1/39/10 3/40/10
f 47/41/11 2/42/11 3/43/11 48/44/11
f 44/45/12 47/46/12 48/47/12 20/48/12
f 29/49/13 27/50/13 26/51/13 28/52/13
f 25/53/14 31/54/14 30/55/14 24/56/14
f 29/57/15 37/58/15 36/59/15 27/60/15
f 25/61/16 39/62/16 38/63/16 31/64/16
f 32/65/17 24/66/17 30/67/17 33/68/17
f 34/69/18 28/70/18 26/71/18 35/72/18
f 19/73/19 33/74/19 30/75/19
f 16/76/20 28/77/20 34/78/20
f 18/79/21 31/80/21 38/81/21
f 37/82/22 29/83/22 17/84/22
f 15/85/23 5/86/23 18/87/23 17/88/23
f 15/89/24 9/90/24 8/91/24 5/92/24
f 49/93/25 50/94/25 41/95/25 42/96/25
f 50/97/26 51/98/26 40/99/26 41/100/26
f 51/101/27 52/102/27 43/103/27 40/104/27
f 52/105/28 49/106/28 42/107/28 43/108/28
f 8/109/29 42/110/29 41/111/29 12/112/29
f 12/113/30 41/114/30 40/115/30 13/116/30
f 13/117/31 40/118/31 43/119/31 9/120/31
f 9/121/32 43/122/32 42/123/32 8/124/32
f 44/125/33 20/126/33 26/127/33 27/128/33
f 27/129/34 36/130/34 44/131/34
f 35/132/35 26/133/35 20/134/35
f 21/135/36 22/136/36 25/137/36 24/138/36
f 24/139/37 32/140/37 21/141/37
f 39/142/38 25/143/38 22/144/38
f 55/145/39 54/146/39 53/147/39 56/148/39
f 57/149/40 55/150/40 56/151/40 58/152/40
f 59/153/41 57/154/41 58/155/41 60/156/41
f 54/157/42 59/158/42 60/159/42 53/160/42
f 49/161/43 54/162/43 55/163/43 50/164/43
f 50/165/44 55/166/44 57/167/44 51/168/44
f 51/169/45 57/170/45 59/171/45 52/172/45
f 52/173/46 59/174/46 54/175/46 49/176/46
f 19/177/47 16/178/47 3/179/47 1/180/47
f 34/181/48 48/182/48 3/183/48 16/184/48
f 33/185/49 19/186/49 1/187/49 23/188/49
f 17/189/50 18/190/50 46/191/50 2/192/50
f 18/193/51 38/194/51 45/195/51 46/196/51
f 47/197/52 37/198/52 17/199/52 2/200/52
f 56/201/53 53/202/53 60/203/53 58/204/53
f 19/205/54 18/206/54 5/207/54 6/208/54
f 4/209/55 15/210/55 17/211/55 16/212/55
f 28/213/56 16/214/56 17/215/56 29/216/56
f 31/217/57 18/218/57 19/219/57 30/220/57
f 15/221/58 4/222/58 7/223/58 9/224/58
f 10/225/59 6/226/59 5/227/59 8/228/59
f 14/229/60 12/230/60 13/231/60 11/232/60
f 10/233/61 8/234/61 12/235/61 14/236/61
f 7/237/62 11/238/62 13/239/62 9/240/62