# Made in Blockbench 4.12.4
mtllib MuroLab3.mtl

o Muros3
v 0.031943125 0.0625 -0.287499375
v 0.031943125 0.0625 -0.22361
v 0.031943125 0.09375 -0.287499375
v 0.031943125 0.09375 -0.22361
v 0.15972125 0.0625 -0.4791625
v 0.095831875 0.0625 -0.4791625
v 0.095831875 0.0625 -0.4152775
v 0.095831875 0.0625 -0.351388125
v 0.095831875 0.0625 -0.287499375
v 0.095831875 0.0625 -0.22361
v 0.15972125 0.0625 -0.4152775
v 0.15972125 0.0625 -0.351388125
v 0.15972125 0.0625 -0.287499375
v 0.15972125 0.0625 -0.22361
v 0.095831875 0.09375 -0.4791625
v 0.15972125 0.09375 -0.4791625
v 0.15972125 0.09375 -0.22361
v 0.095831875 0.09375 -0.287499375
v 0.15972125 0.09375 -0.287499375
v 0.095831875 0.09375 -0.4152775
v 0.095831875 0.09375 -0.351388125
v 0.15972125 0.09375 -0.351388125
v 0.15972125 0.09375 -0.4152775
v 0.095831875 0.09375 -0.22361
v 0.111804375 0.10625 -0.463194375
v 0.111804375 0.10625 -0.4152775
v 0.14374875 0.10625 -0.4152775
v 0.14374875 0.10625 -0.463194375
v 0.111804375 0.10625 -0.351388125
v 0.14374875 0.10625 -0.351388125
v 0.111804375 0.10625 -0.271526875
v 0.14374875 0.10625 -0.287499375
v 0.095831875 0.10625 -0.2395825
v 0.14374875 0.10625 -0.2395825
v 0.047915 0.10625 -0.271526875
v 0.047915 0.10625 -0.2395825
v 0.09583125 0.10625 -0.271526875
v 0.111804375 0.10625 -0.2875
v 0.111804375 0.10625 -0.351388125
v 0.111804375 0.10625 -0.4152775
v 0.095831875 0.09375 -0.4152775
v 0.095831875 0.09375 -0.351388125
v 0.14374875 0.10625 -0.351388125
v 0.14374875 0.10625 -0.4152775
v 0.15972125 0.09375 -0.351388125
v 0.15972125 0.09375 -0.4152775
vt 1.005640625 1
vt 0 1
vt 0 0.5128675
vt 1.005640625 0.5128675
vt 0.25 0.75
vt 0.25 0
vt 0.75 0
vt 0.75 0.75
vt 1.005640625 1
vt 0 1
vt 0 0.5128675
vt 1.005640625 0.5128675
vt 1.005640625 1
vt 0 1
vt 0 0.5128675
vt 1.005640625 0.5128675
vt 1.005640625 1
vt 0 1
vt 0 0.5128675
vt 1.005640625 0.5128675
vt 1.005640625 1
vt 0 1
vt 0 0.5128675
vt 1.005640625 0.5128675
vt 1.005640625 1
vt 0 1
vt 0 0.5128675
vt 1.005640625 0.5128675
vt 1.005640625 1
vt 0 1
vt 0 0.5128675
vt 1.005640625 0.5128675
vt 1.005640625 1
vt 0 1
vt 0 0.5128675
vt 1.005640625 0.5128675
vt 1.005640625 1
vt 0 1
vt 0 0.5128675
vt 1.005640625 0.5128675
vt 1.005640625 1
vt 0 1
vt 0 0.5128675
vt 1.005640625 0.5128675
vt 1.005640625 1
vt 0 1
vt 0 0.5128675
vt 1.005640625 0.5128675
vt 0.25 0
vt 0.25 0.75
vt 0 1
vt 0 0
vt 0.75 0.75
vt 0.75 0
vt 1 0
vt 1 1
vt 0.25 0.75
vt 0.75 0.75
vt 1 1
vt 0 1
vt 0.75 1
vt 0.75 0
vt 1 0
vt 1 1
vt 0.75102125 0.99999
vt 0.75102125 0.248985
vt 1.00136125 -0.001353125000000066
vt 1.00136125 0.99999
vt 0.25 0.25
vt 0.25 0.75
vt 0 1
vt 0 0
vt 1.005640625 1
vt 0 1
vt 0 0.5128675
vt 1.005640625 0.5128675
vt 1.005640625 1
vt 0 1
vt 0 0.012867500000000032
vt 1.005640625 0.012867500000000032
vt 0 1
vt 0 0.012867500000000032
vt 1.005640625 0.012867500000000032
vt 1.005640625 1
vt 1.005640625 1
vt 0 1
vt 0 0.012867500000000032
vt 1.005640625 0.012867500000000032
vt 1.005640625 0.012867500000000032
vt 1.005640625 1
vt 0 1
vt 0 0.012867500000000032
vt 0 1
vt 0 0.012867500000000032
vt 1.005640625 0.012867500000000032
vt 1.005640625 1
vt 0.25 0.75
vt 0.25 0.25
vt 1 0.25
vt 1 0.75
vt 0.00001 0.248985
vt 0.25035 0.7496518750000001
vt 0 0.7496518750000001
vt 0.25035 0.7496518750000001
vt 0.00001 0.248985
vt 0.75102125 0.248985
vt 0.75102125 0.99999
vt 0.75102125 0.248985
vt 0.00001 0.248985
vt 0.00001 -0.001353125000000066
vt 1.00136125 -0.001353125000000066
vt 1 0
vt 1 0.25
vt 0.25 0.25
vt 0 0
vt 0.25 0.75
vt 1 0.75
vt 1 1
vt 0 1
vt 0 0.7496518750000001
vt 0.25035 0.7496518750000001
vt 0.00001 0.99999
vt 0.75 1
vt 0.25 1
vt 0.25 0
vt 0.75 0
vt 0.25035 1
vt 0.25035 0.7496518750000001
vt 0.75102125 0.99999
vt 0.25035 0.7496518750000001
vt 0.25035 1
vt 0.00001 0.99999
vt 0.25 0
vt 0.25 1
vt 0 1
vt 0 0
vt 0.25034625 -0.0013525000000000897
vt 0.25034625 1
vt 0 1
vt 0 -0.0013525000000000897
vt 0.751028125 1
vt 0.751028125 -0.0013525000000000897
vt 1.001374375 -0.0013525000000000897
vt 1.001374375 1
vt 0.25034625 1
vt 0.25034625 -0.0013525000000000897
vt 0.751028125 -0.0013525000000000897
vt 0.751028125 1
vn -1 0 0
vn 0 1 0
vn 0 0 1
vn 1 0 0
vn 0 0 1
vn 0 0 -1
vn -1 0 0
vn 1 0 0
vn -1 0 0
vn 1 0 0
vn -1 0 0
vn 1 0 0
vn -0.6163016145378515 0.7875102030564669 0
vn 0.6163016145378515 0.7875102030564669 0
vn 0 0.7874282512316384 -0.6164063182368298
vn 0.6163016145378515 0.787510203056467 0
vn 0.6163016145378515 0.7875102030564668 0
vn -0.6163165706983219 0.7874984982097809 0
vn 0 0 -1
vn 0 -1 0
vn 0 -1 0
vn 0 -1 0
vn 0 -1 0
vn 0 -1 0
vn 0 1 0
vn 0 1 0
vn 0 1 0
vn 0 0.787510203056467 0.6163016145378515
vn 0 0.7875102030564668 0.6163016145378515
vn 0 0.7875102030564668 -0.6163016145378515
vn 0 0.7875102030564668 -0.6163016145378515
vn 0 1 0
vn 0 1 0
vn -0.6163016145378515 0.7875102030564668 0
vn -0.6163016145378515 0.787510203056467 0
vn -0.6163016145378515 0.787510203056467 0
vn 0.6163016145378515 0.787510203056467 0
vn 0 1 0
usemtl m_3d904dcb-94a2-04bb-0343-05b406504322
f 4/1/1 3/2/1 1/3/1 2/4/1
f 25/5/2 26/6/2 27/7/2 28/8/2
f 17/9/3 24/10/3 10/11/3 14/12/3
f 19/13/4 17/14/4 14/15/4 13/16/4
f 24/17/5 4/18/5 2/19/5 10/20/5
f 3/21/6 18/22/6 9/23/6 1/24/6
f 21/25/7 20/26/7 7/27/7 8/28/7
f 23/29/8 22/30/8 12/31/8 11/32/8
f 18/33/9 21/34/9 8/35/9 9/36/9
f 22/37/10 19/38/10 13/39/10 12/40/10
f 20/41/11 15/42/11 6/43/11 7/44/11
f 16/45/12 23/46/12 11/47/12 5/48/12
f 26/49/13 25/50/13 15/51/13 20/52/13
f 28/53/14 27/54/14 23/55/14 16/56/14
f 25/57/15 28/58/15 16/59/15 15/60/15
f 30/61/16 32/62/16 19/63/16 22/64/16
f 32/65/17 34/66/17 17/67/17 19/68/17
f 36/69/18 35/70/18 3/71/18 4/72/18
f 15/73/19 16/74/19 5/75/19 6/76/19
f 12/77/20 8/78/20 7/79/20 11/80/20
f 2/81/21 1/82/21 9/83/21 10/84/21
f 14/85/22 10/86/22 9/87/22 13/88/22
f 12/89/23 13/90/23 9/91/23 8/92/23
f 7/93/24 6/94/24 5/95/24 11/96/24
f 35/97/25 36/98/25 33/99/25 37/100/25
f 33/101/26 31/102/26 37/103/26
f 31/104/27 33/105/27 34/106/27 32/107/27
f 34/108/28 33/109/28 24/110/28 17/111/28
f 24/112/29 33/113/29 36/114/29 4/115/29
f 35/116/30 37/117/30 18/118/30 3/119/30
f 37/120/31 31/121/31 18/122/31
f 30/123/32 29/124/32 38/125/32 32/126/32
f 38/127/33 31/128/33 32/129/33
f 31/130/34 38/131/34 18/132/34
f 38/133/35 29/134/35 21/135/35 18/136/35
f 39/137/36 40/138/36 41/139/36 42/140/36
f 44/141/37 43/142/37 45/143/37 46/144/37
f 40/145/38 39/146/38 43/147/38 44/148/38