# Made in Blockbench 4.12.4
mtllib MuroLab4.mtl

o Muros4
v 0.351388125 0.0625 -0.4152775
v 0.4152775 0.0625 -0.4152775
v 0.351388125 0.0625 -0.351388125
v 0.4152775 0.0625 -0.351388125
v 0.351388125 0.0625 -0.287499375
v 0.4152775 0.0625 -0.287499375
v 0.351388125 0.0625 -0.22361
v 0.4152775 0.0625 -0.22361
v 0.351388125 0.0625 -0.15972125
v 0.4152775 0.0625 -0.15972125
v 0.4791625 0.0625 -0.351388125
v 0.4791625 0.0625 -0.287499375
v 0.22361 0.0625 -0.4152775
v 0.22361 0.0625 -0.351388125
v 0.22361 0.0625 -0.287499375
v 0.22361 0.0625 -0.22361
v 0.22361 0.0625 -0.15972125
v 0.287499375 0.0625 -0.4152775
v 0.287499375 0.0625 -0.351388125
v 0.287499375 0.0625 -0.287499375
v 0.287499375 0.0625 -0.22361
v 0.287499375 0.0625 -0.15972125
v 0.4791625 0.09375 -0.351388125
v 0.4791625 0.09375 -0.287499375
v 0.351388125 0.09375 -0.4152775
v 0.351388125 0.09375 -0.351388125
v 0.4152775 0.09375 -0.351388125
v 0.4152775 0.09375 -0.4152775
v 0.351388125 0.09375 -0.287499375
v 0.4152775 0.09375 -0.287499375
v 0.287499375 0.09375 -0.4152775
v 0.287499375 0.09375 -0.351388125
v 0.22361 0.09375 -0.4152775
v 0.22361 0.09375 -0.351388125
v 0.22361 0.09375 -0.287499375
v 0.287499375 0.09375 -0.287499375
v 0.22361 0.09375 -0.22361
v 0.287499375 0.09375 -0.22361
v 0.22361 0.09375 -0.15972125
v 0.287499375 0.09375 -0.15972125
v 0.351388125 0.09375 -0.15972125
v 0.351388125 0.09375 -0.22361
v 0.4152775 0.09375 -0.15972125
v 0.4152775 0.09375 -0.22361
v 0.351388125 0.10625 -0.399305
v 0.367360625 0.10625 -0.367360625
v 0.399305 0.10625 -0.33541625
v 0.399305 0.10625 -0.399305
v 0.367360625 0.10625 -0.30347125
v 0.4152775 0.10625 -0.30347125
v 0.463194375 0.10625 -0.30347125
v 0.463194375 0.10625 -0.33541625
v 0.287499375 0.10625 -0.399305
v 0.271526875 0.10625 -0.367360625
v 0.2395825 0.10625 -0.351388125
v 0.2395825 0.10625 -0.287499375
v 0.271526875 0.10625 -0.287499375
v 0.2395825 0.10625 -0.399305
v 0.2395825 0.10625 -0.22361
v 0.271526875 0.10625 -0.207638125
v 0.2395825 0.10625 -0.175693125
v 0.287499375 0.10625 -0.175693125
v 0.351388125 0.10625 -0.175693125
v 0.351388125 0.10625 -0.207638125
v 0.399305 0.10625 -0.175693125
v 0.399305 0.10625 -0.207638125
v 0.2875 0.10625 -0.207638125
v 0.271526875 0.10625 -0.2236125
v 0.415275 0.10625 -0.33541625
v 0.3513875 0.10625 -0.367360625
v 0.2875 0.10625 -0.367360625
v 0.271526875 0.10625 -0.3513875
v 0.367360625 0.10625 -0.3513875
v 0.399305 0.10625 -0.3513875
vt 0 0.75
vt 0 0.25
vt 0.75 0.25
vt 0.75 0.75
vt 0.25 0.75
vt 0.25 0
vt 0.75 0.25
vt 1 0.75
vt 0.25 1
vt 0.25 0.25
vt 1 0.25
vt 0.75 0.75
vt 1.005640625 1
vt 0 1
vt 0 0.5128675
vt 1.005640625 0.5128675
vt 1.005640625 1
vt 0 1
vt 0 0.5128675
vt 1.005640625 0.5128675
vt 1.005640625 1
vt 0 1
vt 0 0.5128675
vt 1.005640625 0.5128675
vt 1.005640625 1
vt 0 1
vt 0 0.5128675
vt 1.005640625 0.5128675
vt 1.005640625 1
vt 0 1
vt 0 0.5128675
vt 1.005640625 0.5128675
vt 1.005640625 1
vt 0 1
vt 0 0.5128675
vt 1.005640625 0.5128675
vt 1.005640625 1
vt 0 1
vt 0 0.5128675
vt 1.005640625 0.5128675
vt 1.005640625 1
vt 0 1
vt 0 0.5128675
vt 1.005640625 0.5128675
vt 1.005640625 1
vt 0 1
vt 0 0.5128675
vt 1.005640625 0.5128675
vt 1.005640625 1
vt 0 1
vt 0 0.5128675
vt 1.005640625 0.5128675
vt 1.005640625 1
vt 0 1
vt 0 0.5128675
vt 1.005640625 0.5128675
vt 1.005640625 1
vt 0 1
vt 0 0.5128675
vt 1.005640625 0.5128675
vt 1.005640625 1
vt 0 1
vt 0 0.5128675
vt 1.005640625 0.5128675
vt 1.005640625 1
vt 0 1
vt 0 0.5128675
vt 1.005640625 0.5128675
vt 1.005640625 1
vt 0 1
vt 0 0.5128675
vt 1.005640625 0.5128675
vt 1.005640625 1
vt 0 1
vt 0 0.5128675
vt 1.005640625 0.5128675
vt 1.005640625 1
vt 0 1
vt 0 0.5128675
vt 1.005640625 0.5128675
vt 1.005640625 1
vt 0 1
vt 0 0.5128675
vt 1.005640625 0.5128675
vt 1.005640625 1
vt 0 1
vt 0 0.5128675
vt 1.005640625 0.5128675
vt 1.005640625 1
vt 0 1
vt 0 0.5128675
vt 1.005640625 0.5128675
vt 1.005640625 1
vt 0 1
vt 0 0.5128675
vt 1.005640625 0.5128675
vt 0.00001 0.7496618749999999
vt 0.75102125 0.7496618749999999
vt 1.00136125 1
vt 0.00001 1
vt 1 0.25
vt 0.25 0.25
vt 0 0
vt 1 0
vt 0.75 0.25
vt 0 0.25
vt 0 0
vt 1 0
vt 0.75 0.75
vt 0.75 0.25
vt 1 0
vt 1 1
vt 0 0.75
vt 1 0.75
vt 1 1
vt 0 1
vt 0.25 0
vt 0.25 1
vt 0 1
vt 0 0
vt 0.25 0
vt 0.25 0.75
vt 0 1
vt 0 0
vt 0.25 0.75
vt 1 0.75
vt 1 1
vt 0 1
vt 0.25 0
vt 0.25 1
vt 0 1
vt 0 0
vt 0.25 0.25
vt 0.25 1
vt 0 1
vt 0 0
vt 1 0.25
vt 0.25 0.25
vt 0 0
vt 1 0
vt 0.75 0.25
vt 0 0.25
vt 0 0
vt 1 0
vt 0.75 0.75
vt 0.75 0.25
vt 1 0
vt 1 1
vt 0 0.75
vt 0.75 0.75
vt 1 1
vt 0 1
vt 1.005640625 1
vt 0 1
vt 0 0.5128675
vt 1.005640625 0.5128675
vt 1.005640625 0.012867500000000032
vt 1.005640625 1
vt 0 1
vt 0 0.012867500000000032
vt 1.005640625 1
vt 0 1
vt 0 0.012867500000000032
vt 1.005640625 0.012867500000000032
vt 1.005640625 0.012867500000000032
vt 1.005640625 1
vt 0 1
vt 0 0.012867500000000032
vt 1.005640625 1
vt 0 1
vt 0 0.012867500000000032
vt 1.005640625 0.012867500000000032
vt 0 0.012867500000000032
vt 1.005640625 0.012867500000000032
vt 1.005640625 1
vt 0 1
vt 1.005640625 0.012867500000000032
vt 1.005640625 1
vt 0 1
vt 0 0.012867500000000032
vt 1.005640625 1
vt 0 1
vt 0 0.012867500000000032
vt 1.005640625 0.012867500000000032
vt 0 0.012867500000000032
vt 1.005640625 0.012867500000000032
vt 1.005640625 1
vt 0 1
vt 0 1
vt 0 0.012867500000000032
vt 1.005640625 0.012867500000000032
vt 1.005640625 1
vt 1.005640625 0.012867500000000032
vt 1.005640625 1
vt 0 1
vt 0 0.012867500000000032
vt 1 0.25
vt 0 0.25
vt 0 0
vt 1 0
vt 0.75 0.75
vt 1 0.25
vt 1 0.75
vt 0 0.75
vt 0 0.25
vt 1 0.25
vt 1 0.75
vt 0.75 0.75
vt 1 0.75
vt 1 1
vt 0 0.75
vt 1 0.75
vt 1 1
vt 0 1
vt 0.25 1
vt 0.25 0
vt 0.75 0
vt 0.75 1
vt 0.25 1
vt 0.75 0.75
vt 0.75 1
vt 1 1
vt 0.75 1
vt 0.75 0
vt 1 0
vt 0.75 1
vt 0.75 0.75
vt 1 1
vt 0.75 0.75
vt 1 0.25
vt 1 0.75
vt 0 0.75
vt 0 0.25
vt 0.75 0.25
vt 0.75 0.75
vt 0.75 0.75
vt 1 0.75
vt 1 1
vt 0 1
vt 0 0.75
vt 0.75 0.75
vt 1 1
vt 0 0.24899499999999997
vt 0.25035 0.24899499999999997
vt 0.00001 0.7496618749999999
vt 0.25035 0.24899499999999997
vt 0 0.24899499999999997
vt 0.00001 -0.001343749999999977
vt 1 0.75
vt 0.75 0.25
vt 1 0.25
vt 0 0.25
vt 1 0.25
vt 1 0.75
vt 0 0.75
vt 1 0
vt 1 0.25
vt 0 0.25
vt 0 0
vt 1 0.25
vt 0.75 0.25
vt 1 0
vt 0.25 1
vt 0.25 0
vt 0.75 0
vt 0.75 1
vt 0.75 0
vt 0.75 0.25
vt 0.25 0
vt 0.75 0.25
vt 0.75 0
vt 1 0
vt 1 1
vt 0.75 1
vt 0.75 0
vt 1 0
vt 0.25 0.25
vt 0.25 1
vt 0 1
vt 0 0
vt 0.25035 -0.001353125000000066
vt 0.25035 0.24899499999999997
vt 0.00001 -0.001343749999999977
vt 0.75102125 0.7496618749999999
vt 0.75102125 -0.001353125000000066
vt 1.00136125 -0.001343749999999977
vt 1.00136125 1
vt 0.75 1
vt 0.75 0.75
vt 1 1
vt 0.75102125 -0.001353125000000066
vt 0.75102125 0.7496618749999999
vt 0.00001 0.7496618749999999
vt 0.25035 0.24899499999999997
vt 0.75 0.75
vt 0.25 1
vt 0.25 0.25
vt 1 0.25
vt 0.75 1
vt 0.25 1
vt 0.75 0.75
vt 0.25035 -0.001353125000000066
vt 0.75102125 -0.001353125000000066
vt 0.25035 0.24899499999999997
vn 0 1 0
vn 0 1 0
vn 0 1 0
vn 1 0 0
vn 0 0 -1
vn -1 0 0
vn 0 0 1
vn 0 0 1
vn 0 0 -1
vn 0 0 1
vn 0 0 -1
vn -1 0 0
vn 0 0 -1
vn -1 0 0
vn 1 0 0
vn -1 0 0
vn 1 0 0
vn -1 0 0
vn 0 0 1
vn 0 0 1
vn 0 0 -1
vn 0 0 1
vn 1 0 0
vn 0 0 -1
vn 0 0.7875102030564668 -0.6163016145378515
vn 0 0.7874984982097815 0.6163165706983214
vn 0 0.7874984982097815 0.6163165706983212
vn 0.6164063182368298 0.7874282512316383 0
vn 0 0.787510203056467 -0.6163016145378515
vn -0.6163016145378515 0.787510203056467 0
vn -0.6163016145378515 0.7875102030564668 0
vn 0 0.7875102030564668 -0.6163016145378515
vn -0.6163016145378515 0.7875102030564668 0
vn -0.6163016145378515 0.7875102030564668 0
vn 0 0.7874984982097809 0.616316570698322
vn 0 0.7874984982097809 0.616316570698322
vn 0.6163016145378515 0.7875102030564669 0
vn 0 0.7874984982097809 -0.616316570698322
vn 1 0 0
vn 0 -1 0
vn 0 -1 0
vn 0 -1 0
vn 0 -1 0
vn 0 -1 0
vn 0 -1 0
vn 0 -1 0
vn 0 -1 0
vn 0 -1 0
vn 0 -1 0
vn 0 0.7874984982097809 0.6163165706983219
vn 0 1 0
vn 0 1 0
vn 0 0.7874984982097809 -0.616316570698322
vn 0 0.7874984982097809 -0.6163165706983219
vn 0 1 0
vn 0 1 0
vn 0.6163016145378515 0.7875102030564668 0
vn 0.6163016145378515 0.7875102030564668 0
vn 0 1 0
vn 0 1 0
vn 0 0.7874984982097806 -0.6163165706983227
vn 0 0.7874984982097806 -0.6163165706983227
vn 0 1 0
vn 0 0.7875102030564668 0.6163016145378515
vn 0 1 0
vn 0 1 0
vn 0 0.787510203056467 0.6163016145378515
vn 0 0.7875102030564668 0.6163016145378515
vn 0 1 0
vn 0 1 0
vn 0.6163016145378515 0.7875102030564668 0
vn 0.6163016145378515 0.787510203056467 0
vn -0.6163016145378515 0.7875102030564669 0
vn -0.6163016145378515 0.7875102030564668 0
vn 0.6163016145378515 0.7875102030564668 0
vn 0.6163016145378515 0.7875102030564669 0
vn 0 1 0
vn 0 1 0
vn 0 1 0
vn 0 1 0
usemtl m_0cbd0d2b-440d-23af-39c4-07747a332645
f 64/1/1 63/2/1 65/3/1 66/4/1
f 58/5/2 55/6/2 54/7/2 53/8/2
f 59/9/3 61/10/3 62/11/3 60/12/3
f 28/13/4 27/14/4 4/15/4 2/16/4
f 25/17/5 28/18/5 2/19/5 1/20/5
f 29/21/6 26/22/6 3/23/6 5/24/6
f 30/25/7 29/26/7 5/27/7 6/28/7
f 24/29/8 30/30/8 6/31/8 12/32/8
f 27/33/9 23/34/9 11/35/9 4/36/9
f 26/37/10 32/38/10 19/39/10 3/40/10
f 31/41/11 25/42/11 1/43/11 18/44/11
f 34/45/12 33/46/12 13/47/12 14/48/12
f 33/49/13 31/50/13 18/51/13 13/52/13
f 35/53/14 34/54/14 14/55/14 15/56/14
f 32/57/15 36/58/15 20/59/15 19/60/15
f 37/61/16 35/62/16 15/63/16 16/64/16
f 36/65/17 38/66/17 21/67/17 20/68/17
f 39/69/18 37/70/18 16/71/18 17/72/18
f 40/73/19 39/74/19 17/75/19 22/76/19
f 41/77/20 40/78/20 22/79/20 9/80/20
f 38/81/21 42/82/21 7/83/21 21/84/21
f 43/85/22 41/86/22 9/87/22 10/88/22
f 44/89/23 43/90/23 10/91/23 8/92/23
f 42/93/24 44/94/24 8/95/24 7/96/24
f 45/97/25 48/98/25 28/99/25 25/100/25
f 50/101/26 49/102/26 29/103/26 30/104/26
f 51/105/27 50/106/27 30/107/27 24/108/27
f 52/109/28 51/110/28 24/111/28 23/112/28
f 53/113/29 45/114/29 25/115/29 31/116/29
f 56/117/30 55/118/30 34/119/30 35/120/30
f 55/121/31 58/122/31 33/123/31 34/124/31
f 58/125/32 53/126/32 31/127/32 33/128/32
f 59/129/33 56/130/33 35/131/33 37/132/33
f 61/133/34 59/134/34 37/135/34 39/136/34
f 62/137/35 61/138/35 39/139/35 40/140/35
f 65/141/36 63/142/36 41/143/36 43/144/36
f 66/145/37 65/146/37 43/147/37 44/148/37
f 64/149/38 66/150/38 44/151/38 42/152/38
f 23/153/39 24/154/39 12/155/39 11/156/39
f 11/157/40 12/158/40 6/159/40 4/160/40
f 6/161/41 5/162/41 3/163/41 4/164/41
f 1/165/42 3/166/42 19/167/42 18/168/42
f 4/169/43 3/170/43 1/171/43 2/172/43
f 15/173/44 20/174/44 21/175/44 16/176/44
f 7/177/45 9/178/45 22/179/45 21/180/45
f 10/181/46 9/182/46 7/183/46 8/184/46
f 14/185/47 19/186/47 20/187/47 15/188/47
f 17/189/48 16/190/48 21/191/48 22/192/48
f 18/193/49 19/194/49 14/195/49 13/196/49
f 63/197/50 62/198/50 40/199/50 41/200/50
f 60/201/51 62/202/51 67/203/51
f 67/204/52 62/205/52 63/206/52 64/207/52
f 60/208/53 67/209/53 38/210/53
f 67/211/54 64/212/54 42/213/54 38/214/54
f 56/215/55 59/216/55 68/217/55 57/218/55
f 59/219/56 60/220/56 68/221/56
f 36/222/57 57/223/57 68/224/57 38/225/57
f 68/226/58 60/227/58 38/228/58
f 47/229/59 50/230/59 69/231/59
f 69/232/60 50/233/60 51/234/60 52/235/60
f 47/236/61 69/237/61 27/238/61
f 27/239/62 69/240/62 52/241/62 23/242/62
f 70/243/63 46/244/63 45/245/63
f 46/246/64 70/247/64 26/248/64
f 53/249/65 54/250/65 71/251/65
f 71/252/66 70/253/66 45/254/66 53/255/66
f 26/256/67 70/257/67 71/258/67 32/259/67
f 71/260/68 54/261/68 32/262/68
f 55/263/69 56/264/69 57/265/69 72/266/69
f 72/267/70 54/268/70 55/269/70
f 54/270/71 72/271/71 32/272/71
f 32/273/72 72/274/72 57/275/72 36/276/72
f 49/277/73 73/278/73 26/279/73 29/280/73
f 73/281/74 46/282/74 26/283/74
f 48/284/75 74/285/75 27/286/75 28/287/75
f 74/288/76 47/289/76 27/290/76
f 74/291/77 48/292/77 45/293/77 46/294/77
f 47/295/78 73/296/78 49/297/78 50/298/78
f 74/299/79 73/300/79 47/301/79
f 73/302/80 74/303/80 46/304/80