# Made in Blockbench 4.12.4
mtllib MuroLab0.mtl

o Muros0
v -0.28750125 0.0625 0.4791625
v -0.35139 0.0625 0.4791625
v -0.41527875 0.0625 0.2236125
v -0.41527875 0.0625 0.28750125
v -0.41527875 0.0625 0.35139
v -0.41527875 0.0625 0.41527875
v -0.35139 0.0625 0.2236125
v -0.35139 0.0625 0.28750125
v -0.35139 0.0625 0.35139
v -0.35139 0.0625 0.41527875
v -0.28750125 0.0625 0.2236125
v -0.28750125 0.0625 0.28750125
v -0.28750125 0.0625 0.35139
v -0.28750125 0.0625 0.41527875
v -0.2236125 0.0625 0.2236125
v -0.2236125 0.0625 0.28750125
v -0.2236125 0.0625 0.35139
v -0.2236125 0.0625 0.41527875
v -0.15972375 0.0625 0.03194625
v -0.15972375 0.0625 0.095835
v -0.15972375 0.0625 0.15972375
v -0.15972375 0.0625 0.2236125
v -0.15972375 0.0625 0.28750125
v -0.15972375 0.0625 0.35139
v -0.15972375 0.0625 0.41527875
v -0.095835 0.0625 0.03194625
v -0.095835 0.0625 0.095835
v -0.095835 0.0625 0.15972375
v -0.095835 0.0625 0.2236125
v -0.095835 0.0625 0.28750125
v -0.095835 0.0625 0.35139
v -0.095835 0.0625 0.41527875
v -0.03194625 0.0625 0.095835
v -0.03194625 0.0625 0.15972375
v -0.03194625 0.0625 0.2236125
v -0.03194625 0.0625 0.28750125
v 0.031943125 0.0625 0.2236125
v 0.031943125 0.0625 0.28750125
v -0.15972375 0.09375 0.03194625
v -0.15972375 0.09375 0.095835
v -0.095835 0.09375 0.095835
v -0.095835 0.09375 0.03194625
v -0.15972375 0.09375 0.15972375
v -0.095835 0.09375 0.15972375
v -0.03194625 0.09375 0.15972375
v -0.03194625 0.09375 0.095835
v -0.28750125 0.09375 0.4791625
v -0.35139 0.09375 0.4791625
v -0.095835 0.09375 0.2236125
v -0.03194625 0.09375 0.2236125
v -0.095835 0.09375 0.28750125
v 0.031943125 0.09375 0.28750125
v -0.15972375 0.09375 0.2236125
v -0.15972375 0.09375 0.28750125
v -0.2236125 0.09375 0.2236125
v -0.2236125 0.09375 0.28750125
v -0.28750125 0.09375 0.2236125
v -0.28750125 0.09375 0.28750125
v -0.15972375 0.09375 0.35139
v -0.095835 0.09375 0.35139
v -0.15972375 0.09375 0.41527875
v -0.095835 0.09375 0.41527875
v -0.2236125 0.09375 0.41527875
v -0.28750125 0.09375 0.35139
v -0.28750125 0.09375 0.41527875
v -0.35139 0.09375 0.35139
v -0.35139 0.09375 0.41527875
v -0.41527875 0.09375 0.28750125
v -0.41527875 0.09375 0.35139
v -0.35139 0.09375 0.28750125
v -0.41527875 0.09375 0.41527875
v -0.35139 0.09375 0.2236125
v -0.41527875 0.09375 0.2236125
v -0.03194625 0.09375 0.28750125
v 0.031943125 0.09375 0.2236125
v -0.2236125 0.09375 0.35139
v -0.30347375 0.10625 0.463194375
v -0.335418125 0.10625 0.39930625
v -0.30347375 0.10625 0.39930625
v -0.335418125 0.10625 0.463194375
v -0.28750125 0.10625 0.3673625
v -0.239585 0.10625 0.39930625
v -0.239585 0.10625 0.3673625
v -0.3673625 0.10625 0.3673625
v -0.39930625 0.10625 0.35139
v -0.39930625 0.10625 0.39930625
v -0.39930625 0.10625 0.28750125
v -0.3673625 0.10625 0.271529375
v -0.39930625 0.10625 0.239585
v -0.35139 0.10625 0.239585
v -0.28750125 0.10625 0.271529375
v -0.28750125 0.10625 0.239585
v -0.2236125 0.10625 0.271529375
v -0.2236125 0.10625 0.239585
v -0.143751875 0.10625 0.271529375
v -0.15972375 0.10625 0.239585
v -0.111806875 0.10625 0.271529375
v -0.0798625 0.10625 0.239585
v -0.143751875 0.10625 0.35139
v -0.111806875 0.10625 0.35139
v -0.143751875 0.10625 0.39930625
v -0.111806875 0.10625 0.39930625
v -0.143751875 0.10625 0.095835
v -0.143751875 0.10625 0.143751875
v -0.0798625 0.10625 0.143751875
v -0.111806875 0.10625 0.111806875
v -0.047918125 0.10625 0.15972375
v -0.047918125 0.10625 0.111806875
v -0.047918125 0.10625 0.239585
v -0.03194625 0.10625 0.271529375
v 0.015970625 0.10625 0.271529375
v 0.015970625 0.10625 0.239585
v -0.143751875 0.10625 0.047918125
v -0.111806875 0.10625 0.047918125
v -0.30347375 0.10625 0.41528125
v -0.335418125 0.10625 0.41528125
v -0.2875 0.10625 0.39930625
v -0.3513875 0.10625 0.39930625
v -0.3513875 0.10625 0.3673625
v -0.3673625 0.10625 0.3513875
v -0.3673625 0.10625 0.2875
v -0.3513875 0.10625 0.271529375
v -0.159725 0.10625 0.271529375
v -0.143751875 0.10625 0.2875
v -0.111806875 0.10625 0.2875
v -0.0958375 0.10625 0.239585
v -0.0958375 0.10625 0.271529375
v -0.03194375 0.10625 0.239585
v -0.047918125 0.10625 0.2236125
v -0.0798625 0.10625 0.2236125
v -0.0798625 0.10625 0.159725
v -0.0958375 0.10625 0.143751875
v -0.0958375 0.10625 0.111806875
v -0.111806875 0.10625 0.0958375
vt 0.25 0.75
vt 0.25 0
vt 0.75 0.25
vt 1 0.75
vt 0 0.75
vt 0 0.25
vt 1 0.25
vt 1 0.75
vt 0.25 1
vt 0.25 0.25
vt 0.75 0.25
vt 0.75 1
vt 1.005640625 1
vt 0 1
vt 0 0.5128675
vt 1.005640625 0.5128675
vt 1.005640625 1
vt 0 1
vt 0 0.5128675
vt 1.005640625 0.5128675
vt 1.005640625 1
vt 0 1
vt 0 0.5128675
vt 1.005640625 0.5128675
vt 1.005640625 1
vt 0 1
vt 0 0.5128675
vt 1.005640625 0.5128675
vt 1.005640625 1
vt 0 1
vt 0 0.5128675
vt 1.005640625 0.5128675
vt 1.005640625 1
vt 0 1
vt 0 0.5128675
vt 1.005640625 0.5128675
vt 1.005640625 1
vt 0 1
vt 0 0.5128675
vt 1.005640625 0.5128675
vt 1.005640625 1
vt 0 1
vt 0 0.5128675
vt 1.005640625 0.5128675
vt 1.005640625 1
vt 0 1
vt 0 0.5128675
vt 1.005640625 0.5128675
vt 1.005640625 1
vt 0 1
vt 0 0.5128675
vt 1.005640625 0.5128675
vt 1.005640625 1
vt 0 1
vt 0 0.5128675
vt 1.005640625 0.5128675
vt 1.005640625 1
vt 0 1
vt 0 0.5128675
vt 1.005640625 0.5128675
vt 1.005640625 1
vt 0 1
vt 0 0.5128675
vt 1.005640625 0.5128675
vt 1.005640625 1
vt 0 1
vt 0 0.5128675
vt 1.005640625 0.5128675
vt 1.005640625 1
vt 0 1
vt 0 0.5128675
vt 1.005640625 0.5128675
vt 1.005640625 1
vt 0 1
vt 0 0.5128675
vt 1.005640625 0.5128675
vt 1.005640625 1
vt 0 1
vt 0 0.5128675
vt 1.005640625 0.5128675
vt 1.005640625 1
vt 0 1
vt 0 0.5128675
vt 1.005640625 0.5128675
vt 1.005640625 1
vt 0 1
vt 0 0.5128675
vt 1.005640625 0.5128675
vt 1.005640625 1
vt 0 1
vt 0 0.5128675
vt 1.005640625 0.5128675
vt 1.005640625 1
vt 0 1
vt 0 0.5128675
vt 1.005640625 0.5128675
vt 1.005640625 1
vt 0 1
vt 0 0.5128675
vt 1.005640625 0.5128675
vt 1.005640625 1
vt 0 1
vt 0 0.5128675
vt 1.005640625 0.5128675
vt 1.005640625 1
vt 0 1
vt 0 0.5128675
vt 1.005640625 0.5128675
vt 1.005640625 1
vt 0 1
vt 0 0.5128675
vt 1.005640625 0.5128675
vt 1.005640625 1
vt 0 1
vt 0 0.5128675
vt 1.005640625 0.5128675
vt 1.005640625 1
vt 0 1
vt 0 0.5128675
vt 1.005640625 0.5128675
vt 1.005640625 1
vt 0 1
vt 0 0.5128675
vt 1.005640625 0.5128675
vt 1.005640625 1
vt 0 1
vt 0 0.5128675
vt 1.005640625 0.5128675
vt 1.005640625 1
vt 0 1
vt 0 0.5128675
vt 1.005640625 0.5128675
vt 1.005640625 1
vt 0 1
vt 0 0.5128675
vt 1.005640625 0.5128675
vt 1.005640625 1
vt 0 1
vt 0 0.5128675
vt 1.005640625 0.5128675
vt 1.005640625 1
vt 0 1
vt 0 0.5128675
vt 1.005640625 0.5128675
vt 1.005640625 1
vt 0 1
vt 0 0.5128675
vt 1.005640625 0.5128675
vt 1.005640625 1
vt 0 1
vt 0 0.5128675
vt 1.005640625 0.5128675
vt 1.005640625 1
vt 0 1
vt 0 0.5128675
vt 1.005640625 0.5128675
vt 1.005640625 1
vt 0 1
vt 0 0.5128675
vt 1.005640625 0.5128675
vt 0.75 0.25
vt 0.25 0.25
vt 0 0
vt 1 0
vt 0.75 0.75
vt 0.75 0.25
vt 1 0
vt 1 1
vt 0.00001 0.7496618749999999
vt 0.75102125 0.7496618749999999
vt 1.00136125 1
vt 0.00001 1
vt 0.25 0.25
vt 0.25 1
vt 0 1
vt 0 0
vt 0.25 0
vt 0.25 1
vt 0 1
vt 0 0
vt 0.25 0
vt 0.25 0.75
vt 0 1
vt 0 0
vt 0.25 0.75
vt 1 0.75
vt 1 1
vt 0 1
vt 0 0.75
vt 1 0.75
vt 1 1
vt 0 1
vt 1 0.25
vt 0 0.25
vt 0 0
vt 1 0
vt 0 0.75
vt 1 0.75
vt 1 1
vt 0 1
vt 0 0.75
vt 1 0.75
vt 1 1
vt 0 1
vt 0.25 0.25
vt 0.25 1
vt 0 1
vt 0 0
vt 0.75 0.25
vt 0.25 0.25
vt 0 0
vt 1 0
vt 0.75 1
vt 0.75 0.25
vt 1 0
vt 1 1
vt 0.25 0.25
vt 0.25 1
vt 0 1
vt 0 0
vt 0.75 0.75
vt 0.75 0
vt 1 0
vt 1 1
vt 0.75 0.25
vt 0 0.25
vt 0 0
vt 1 0
vt 0.75 0.75
vt 0.75 0.25
vt 1 0
vt 1 1
vt 0.25 0
vt 0.25 0.75
vt 0 1
vt 0 0
vt 0.25 0.75
vt 0.75 0.75
vt 1 1
vt 0 1
vt 1.005640625 1
vt 0 1
vt 0 0.5128675
vt 1.005640625 0.5128675
vt 0 1
vt 0 0.012867500000000032
vt 1.005640625 0.012867500000000032
vt 1.005640625 1
vt 0 1
vt 0 0.012867500000000032
vt 1.005640625 0.012867500000000032
vt 1.005640625 1
vt 1.005640625 0.012867500000000032
vt 1.005640625 1
vt 0 1
vt 0 0.012867500000000032
vt 0 1
vt 0 0.012867500000000032
vt 1.005640625 0.012867500000000032
vt 1.005640625 1
vt 0 1
vt 0 0.012867500000000032
vt 1.005640625 0.012867500000000032
vt 1.005640625 1
vt 0 1
vt 0 0.012867500000000032
vt 1.005640625 0.012867500000000032
vt 1.005640625 1
vt 1.005640625 1
vt 0 1
vt 0 0.012867500000000032
vt 1.005640625 0.012867500000000032
vt 1.005640625 1
vt 0 1
vt 0 0.012867500000000032
vt 1.005640625 0.012867500000000032
vt 0 1
vt 0 0.012867500000000032
vt 1.005640625 0.012867500000000032
vt 1.005640625 1
vt 0 1
vt 0 0.012867500000000032
vt 1.005640625 0.012867500000000032
vt 1.005640625 1
vt 1.005640625 1
vt 0 1
vt 0 0.012867500000000032
vt 1.005640625 0.012867500000000032
vt 0 1
vt 0 0.012867500000000032
vt 1.005640625 0.012867500000000032
vt 1.005640625 1
vt 0 1
vt 0 0.012867500000000032
vt 1.005640625 0.012867500000000032
vt 1.005640625 1
vt 0 1
vt 0 0.012867500000000032
vt 1.005640625 0.012867500000000032
vt 1.005640625 1
vt 0 1
vt 0 0.012867500000000032
vt 1.005640625 0.012867500000000032
vt 1.005640625 1
vt 1.005640625 1
vt 0 1
vt 0 0.012867500000000032
vt 1.005640625 0.012867500000000032
vt 0 1
vt 0 0.012867500000000032
vt 1.005640625 0.012867500000000032
vt 1.005640625 1
vt 0 1
vt 0 0.012867500000000032
vt 1.005640625 0.012867500000000032
vt 1.005640625 1
vt 0.75 0.25
vt 0.75 1
vt 0.25 1
vt 0.25 0.25
vt 0.75 0
vt 0.75 0.25
vt 0.25 0.25
vt 0.25 0
vt 0.75 0.25
vt 0.75 0
vt 1 0
vt 1.00136125 0.99999
vt 0.75102125 0.99999
vt 0.75102125 0.248985
vt 1.00136125 -0.001353125000000066
vt 0.25 0.25
vt 0.25 1
vt 0 1
vt 0 0
vt 0.25 0
vt 0.25 0.25
vt 0 0
vt 1 0.75
vt 0.75 0.25
vt 1 0.25
vt 0 0.25
vt 0.75 0.25
vt 0.75 0.75
vt 0 0.75
vt 0.75 0.25
vt 0 0.25
vt 0 0
vt 1 0
vt 1 0.25
vt 0.75 0.25
vt 1 0
vt 0.75 0.75
vt 0.25 1
vt 0.25 0.25
vt 1 0.25
vt 0.75 0.75
vt 1 0.75
vt 1 1
vt 0 0.75
vt 1 0.75
vt 1 1
vt 0 1
vt 0.25 0.25
vt 0 0.25
vt 0 0
vt 1 0
vt 1 0.25
vt 0.25 0.25
vt 0 0
vt 0.25 1
vt 0.75 0.75
vt 0.75 1
vt 0.75 1
vt 0.75 0.75
vt 1 1
vt 0.25 1
vt 0.25 0
vt 0.75 0
vt 0.75 1
vt 0.75 0
vt 0.75 0.25
vt 0.25 0
vt 1 0
vt 0.75 0.25
vt 0.75 0
vt 1 1
vt 0.75 1
vt 0.75 0
vt 1 0
vt 1 0.75
vt 0.75 0.25
vt 1 0.25
vt 0 0.25
vt 1 0.25
vt 1 0.75
vt 0 0.75
vt 1 0
vt 1 0.25
vt 0 0.25
vt 0 0
vt 1 0.25
vt 0.75 0.25
vt 1 0
vt 0 0.75
vt 0 0.25
vt 1 0.25
vt 1 0.75
vt 0 0.25
vt 0.25 0.25
vt 0 0.75
vt 0.25 0.25
vt 0 0.25
vt 0 0
vt 1 0.25
vt 0 0.25
vt 0 0
vt 1 0
vt 0.75 0.25
vt 0.25 0.25
vt 0.25 0
vt 0.75 0
vt 0.75 1
vt 0.25 1
vt 0.25 0
vt 0.75 0
vt 0 0
vt 0.25 0
vt 0.25 1
vt 0 1
vt 0.25 0
vt 0.25 0.25
vt 0 0
vt 0.75 0.25
vt 0.75 0
vt 1 0
vt 0.75 1
vt 0.75 0
vt 1 0
vt 1 1
vt 0 0.75
vt 0.25 0.25
vt 0.75 0.25
vt 1 0.75
vt 0 1
vt 0 0.75
vt 1 0.75
vt 1 1
vt 0 0.75
vt 0.25 0.75
vt 0 1
vt 1 0
vt 1 0.25
vt 0 0.25
vt 0 0
vt 1 0.25
vt 0.75 0.25
vt 1 0
vt 0.75 0.75
vt 1 0.25
vt 1 0.75
vt 0 0.75
vt 0 0.25
vt 0.75 0.25
vt 0.75 0.75
vt 0.75 0.75
vt 1 0.75
vt 1 1
vt 0 1
vt 0 0.75
vt 0.75 0.75
vt 1 1
vt 0.75 1
vt 0.25 1
vt 0.25 0.75
vt 0.75 0.75
vt 0.25 0.75
vt 0.25 1
vt 0 1
vt 1 1
vt 0.75 1
vt 0.75 0
vt 1 0
vt 0.75 1
vt 0.75 0.75
vt 1 1
vt 0.75 0
vt 0.25 0.25
vt 0.25 0
vt 0.25 1
vt 0.25 0
vt 0.75 0
vt 0.75 1
vt 0.25 0
vt 0.25 1
vt 0 1
vt 0 0
vt 0.25 0
vt 0.25 0.25
vt 0 0
vt 0.75 0.75
vt 0.25 1
vt 0.25 0.25
vt 1 0.25
vt 0.25 0.25
vt 0 0.25
vt 0 0
vt 1 0
vt 1 0.25
vt 0.25 0.25
vt 0 0
vt 0.75 0.75
vt 1 0.75
vt 1 1
vt 0 1
vt 0 0.75
vt 0.75 0.75
vt 1 1
vt 0.25 0.75
vt 0.25 0
vt 0.75 0
vt 0.75 0.75
vt 0.25 1
vt 0.75 0.75
vt 0.75 1
vt 0.75 0.75
vt 0.75 0
vt 1 0
vt 1 1
vt 0.75 1
vt 0.75 0.75
vt 1 1
vt 0 0.25
vt 1 0.25
vt 0.75 0.75
vt 0.25 0.75
vt 0 0.75
vt 0 0.25
vt 0.25 0.75
vt 1 0.75
vt 0.75 0.25
vt 1 0.25
vt 0.25 0.25
vt 0 0.75
vt 0 0.25
vt 1 0.75
vt 0.75 0.75
vt 1 0.25
vt 0.75 0.75
vt 0 0.75
vt 0.25 0.25
vt 0.75 0
vt 0.75 0.25
vt 1 0.75
vt 0 0.75
vt 0.25 0.25
vt 0 0.25
vt 0.25 0.25
vt 0 0.75
vt 1 0.25
vt 1 0.75
vt 0.75 0.75
vn 0 1 0
vn 0 1 0
vn 0 1 0
vn -1 0 0
vn 1 0 0
vn 0 0 -1
vn -1 0 0
vn 0 0 1
vn 1 0 0
vn 0 0 -1
vn -1 0 0
vn 1 0 0
vn 0 0 1
vn 0 0 1
vn 1 0 0
vn 0 0 -1
vn 0 0 -1
vn 0 0 1
vn 0 0 -1
vn 0 0 1
vn 0 0 -1
vn -1 0 0
vn 1 0 0
vn -1 0 0
vn 0 0 1
vn 1 0 0
vn 0 0 1
vn 1 0 0
vn 0 0 -1
vn 0 0 -1
vn -1 0 0
vn 1 0 0
vn -1 0 0
vn 0 0 1
vn 1 0 0
vn -1 0 0
vn 0 0 1
vn 0 0 -1
vn -1 0 0
vn 0 0 -1
vn 0 0.7874282512316383 0.6164063182368298
vn 0.6163016145378515 0.7875102030564668 0
vn 0 0.7875102030564669 -0.6163016145378515
vn -0.6163016145378515 0.7875102030564669 0
vn -0.6163016145378515 0.787510203056467 0
vn -0.6163016145378515 0.7875102030564669 0
vn 0 0.7875102030564669 -0.6163016145378515
vn 0 0.787510203056467 -0.6163016145378515
vn 0 0.7874984982097806 0.6163165706983227
vn 0 0.787510203056467 -0.6163016145378515
vn 0 0.787510203056467 -0.6163016145378515
vn -0.6163165706983219 0.7874984982097809 0
vn 0 0.7875102030564669 0.6163016145378515
vn 0.6163165706983219 0.7874984982097809 0
vn -0.616316570698322 0.7874984982097809 0
vn 0.616316570698322 0.7874984982097809 0
vn 0 0.7874984982097805 0.6163165706983227
vn 0.6163016145378515 0.787510203056467 0
vn -0.6163165706983219 0.7874984982097809 0
vn 0 0.7874984982097809 -0.616316570698322
vn 0 0 1
vn 0 -1 0
vn 0 -1 0
vn 0 -1 0
vn 0 -1 0
vn 0 -1 0
vn 0 -1 0
vn 0 -1 0
vn 0 -1 0
vn 0 -1 0
vn 0 -1 0
vn 0 -1 0
vn 0 -1 0
vn 0 -1 0
vn 0 -1 0
vn 0 -1 0
vn 0 -1 0
vn 0 -1 0
vn 0 -1 0
vn 0 1 0
vn 0 1 0
vn 0.6163016145378515 0.7875102030564668 0
vn 0.6163016145378514 0.7875102030564669 0
vn -0.6163165706983227 0.7874984982097804 0
vn -0.6163165706983227 0.7874984982097806 0
vn 0 1 0
vn 0 1 0
vn 0 0.787510203056467 0.6163016145378515
vn 0 0.7875102030564669 0.6163016145378515
vn 0 1 0
vn 0 0.7875102030564668 -0.6163016145378515
vn 0 0.7875102030564668 -0.6163016145378515
vn 0 0.7875102030564669 0.6163016145378516
vn 0 0.787510203056467 0.6163016145378515
vn 0 1 0
vn 0.6163016145378515 0.7875102030564668 0
vn 0 1 0
vn 0 1 0
vn 0.6163016145378515 0.7875102030564668 0
vn 0.6163016145378515 0.7875102030564668 0
vn 0 1 0
vn 0 1 0
vn 0 0.7874984982097806 0.6163165706983227
vn 0 0.7874984982097804 0.6163165706983227
vn 0 1 0
vn 0 1 0
vn 0 0.7874984982097804 0.6163165706983227
vn 0 0.7874984982097806 0.6163165706983227
vn 0 1 0
vn 0 1 0
vn -0.616316570698322 0.7874984982097809 0
vn -0.6163165706983219 0.7874984982097809 0
vn 0.6163165706983219 0.7874984982097809 0
vn 0.616316570698322 0.7874984982097809 0
vn 0 1 0
vn 0 0.7875102030564669 -0.6163016145378515
vn 0 0.7875102030564668 -0.6163016145378515
vn 0 0.7874984982097806 0.6163165706983227
vn 0 0.7874984982097806 0.6163165706983227
vn 0 1 0
vn 0 1 0
vn 0 0.7875102030564668 -0.6163016145378515
vn 0 0.7875102030564668 -0.6163016145378515
vn 0 1 0
vn -0.6163016145378515 0.7875102030564669 0
vn 0.6163165706983219 0.7874984982097809 0
vn 0.616316570698322 0.7874984982097809 0
vn 0 1 0
vn 0 1 0
vn -0.6163016145378515 0.7875102030564668 0
vn -0.6163016145378515 0.7875102030564668 0
vn 0 1 0
vn 0 0.7874984982097809 0.6163165706983219
vn 0 0.787498498209781 0.616316570698322
vn 0 0.7874984982097809 -0.6163165706983219
vn 0 0.7874984982097809 -0.616316570698322
vn 0 1 0
vn 0 1 0
vn 0.616316570698322 0.7874984982097809 0
vn 0.6163165706983219 0.7874984982097809 0
vn 0 1 0
vn 0 1 0
vn 0 1 0
vn 0 1 0
vn 0 1 0
vn 0 1 0
vn 0 1 0
vn 0 1 0
vn 0 1 0
usemtl m_152db24f-67b5-999e-116d-c9c759891b3a
f 89/1/1 87/2/1 88/3/1 90/4/1
f 92/5/2 91/6/2 93/7/2 94/8/2
f 99/9/3 101/10/3 102/11/3 100/12/3
f 40/13/4 39/14/4 19/15/4 20/16/4
f 42/17/5 41/18/5 27/19/5 26/20/5
f 39/21/6 42/22/6 26/23/6 19/24/6
f 43/25/7 40/26/7 20/27/7 21/28/7
f 44/29/8 43/30/8 21/31/8 28/32/8
f 46/33/9 45/34/9 34/35/9 33/36/9
f 41/37/10 46/38/10 33/39/10 27/40/10
f 49/41/11 44/42/11 28/43/11 29/44/11
f 45/45/12 50/46/12 35/47/12 34/48/12
f 74/49/13 51/50/13 30/51/13 36/52/13
f 52/53/14 74/54/14 36/55/14 38/56/14
f 75/57/15 52/58/15 38/59/15 37/60/15
f 50/61/16 75/62/16 37/63/16 35/64/16
f 53/65/17 49/66/17 29/67/17 22/68/17
f 54/69/18 56/70/18 16/71/18 23/72/18
f 55/73/19 53/74/19 22/75/19 15/76/19
f 56/77/20 58/78/20 12/79/20 16/80/20
f 57/81/21 55/82/21 15/83/21 11/84/21
f 59/85/22 54/86/22 23/87/22 24/88/22
f 51/89/23 60/90/23 31/91/23 30/92/23
f 61/93/24 59/94/24 24/95/24 25/96/24
f 62/97/25 61/98/25 25/99/25 32/100/25
f 60/101/26 62/102/26 32/103/26 31/104/26
f 63/105/27 65/106/27 14/107/27 18/108/27
f 76/109/28 63/110/28 18/111/28 17/112/28
f 64/113/29 76/114/29 17/115/29 13/116/29
f 66/117/30 64/118/30 13/119/30 9/120/30
f 69/121/31 68/122/31 4/123/31 5/124/31
f 70/125/32 66/126/32 9/127/32 8/128/32
f 71/129/33 69/130/33 5/131/33 6/132/33
f 67/133/34 71/134/34 6/135/34 10/136/34
f 65/137/35 47/138/35 1/139/35 14/140/35
f 48/141/36 67/142/36 10/143/36 2/144/36
f 58/145/37 70/146/37 8/147/37 12/148/37
f 72/149/38 57/150/38 11/151/38 7/152/38
f 68/153/39 73/154/39 3/155/39 4/156/39
f 73/157/40 72/158/40 7/159/40 3/160/40
f 77/161/41 80/162/41 48/163/41 47/164/41
f 83/165/42 82/166/42 63/167/42 76/168/42
f 81/169/43 83/170/43 76/171/43 64/172/43
f 86/173/44 85/174/44 69/175/44 71/176/44
f 85/177/45 87/178/45 68/179/45 69/180/45
f 87/181/46 89/182/46 73/183/46 68/184/46
f 89/185/47 90/186/47 72/187/47 73/188/47
f 90/189/48 92/190/48 57/191/48 72/192/48
f 93/193/49 91/194/49 58/195/49 56/196/49
f 92/197/50 94/198/50 55/199/50 57/200/50
f 94/201/51 96/202/51 53/203/51 55/204/51
f 101/205/52 99/206/52 59/207/52 61/208/52
f 102/209/53 101/210/53 61/211/53 62/212/53
f 100/213/54 102/214/54 62/215/54 60/216/54
f 104/217/55 103/218/55 40/219/55 43/220/55
f 108/221/56 107/222/56 45/223/56 46/224/56
f 111/225/57 110/226/57 74/227/57 52/228/57
f 112/229/58 111/230/58 52/231/58 75/232/58
f 103/233/59 113/234/59 39/235/59 40/236/59
f 113/237/60 114/238/60 42/239/60 39/240/60
f 47/241/61 48/242/61 2/243/61 1/244/61
f 28/245/62 27/246/62 33/247/62 34/248/62
f 21/249/63 20/250/63 27/251/63 28/252/63
f 26/253/64 27/254/64 20/255/64 19/256/64
f 29/257/65 28/258/65 34/259/65 35/260/65
f 36/261/66 35/262/66 37/263/66 38/264/66
f 30/265/67 29/266/67 35/267/67 36/268/67
f 30/269/68 23/270/68 22/271/68 29/272/68
f 23/273/69 16/274/69 15/275/69 22/276/69
f 12/277/70 11/278/70 15/279/70 16/280/70
f 8/281/71 7/282/71 11/283/71 12/284/71
f 8/285/72 4/286/72 3/287/72 7/288/72
f 2/289/73 10/290/73 14/291/73 1/292/73
f 14/293/74 13/294/74 17/295/74 18/296/74
f 10/297/75 9/298/75 13/299/75 14/300/75
f 6/301/76 5/302/76 9/303/76 10/304/76
f 9/305/77 5/306/77 4/307/77 8/308/77
f 24/309/78 23/310/78 30/311/78 31/312/78
f 25/313/79 24/314/79 31/315/79 32/316/79
f 77/317/80 115/318/80 116/319/80 80/320/80
f 115/321/81 79/322/81 78/323/81 116/324/81
f 79/325/82 115/326/82 65/327/82
f 65/328/83 115/329/83 77/330/83 47/331/83
f 80/332/84 116/333/84 67/334/84 48/335/84
f 116/336/85 78/337/85 67/338/85
f 81/339/86 79/340/86 117/341/86
f 117/342/87 82/343/87 83/344/87 81/345/87
f 82/346/88 117/347/88 65/348/88 63/349/88
f 117/350/89 79/351/89 65/352/89
f 84/353/90 85/354/90 86/355/90 118/356/90
f 84/357/91 119/358/91 66/359/91
f 119/360/92 81/361/92 64/362/92 66/363/92
f 78/364/93 118/365/93 67/366/93
f 67/367/94 118/368/94 86/369/94 71/370/94
f 85/371/95 84/372/95 120/373/95
f 120/374/96 84/375/96 66/376/96
f 87/377/97 85/378/97 120/379/97 121/380/97
f 121/381/98 88/382/98 87/383/98
f 70/384/99 88/385/99 121/386/99
f 70/387/100 121/388/100 120/389/100 66/390/100
f 90/391/101 88/392/101 122/393/101
f 122/394/102 91/395/102 92/396/102 90/397/102
f 58/398/103 91/399/103 122/400/103 70/401/103
f 122/402/104 88/403/104 70/404/104
f 94/405/105 93/406/105 123/407/105 96/408/105
f 123/409/106 95/410/106 96/411/106
f 95/412/107 123/413/107 54/414/107
f 123/415/108 93/416/108 56/417/108 54/418/108
f 97/419/109 95/420/109 124/421/109 125/422/109
f 125/423/110 124/424/110 99/425/110 100/426/110
f 59/427/111 99/428/111 124/429/111 54/430/111
f 124/431/112 95/432/112 54/433/112
f 97/434/113 125/435/113 51/436/113
f 125/437/114 100/438/114 60/439/114 51/440/114
f 96/441/115 95/442/115 97/443/115 126/444/115
f 53/445/116 96/446/116 126/447/116 49/448/116
f 126/449/117 98/450/117 49/451/117
f 74/452/118 110/453/118 127/454/118 51/455/118
f 127/456/119 97/457/119 51/458/119
f 109/459/120 110/460/120 128/461/120
f 128/462/121 110/463/121 111/464/121 112/465/121
f 109/466/122 128/467/122 50/468/122
f 50/469/123 128/470/123 112/471/123 75/472/123
f 129/473/124 130/474/124 98/475/124 109/476/124
f 98/477/125 130/478/125 49/479/125
f 45/480/126 107/481/126 129/482/126 50/483/126
f 129/484/127 109/485/127 50/486/127
f 107/487/128 105/488/128 131/489/128
f 131/490/129 130/491/129 129/492/129 107/493/129
f 130/494/130 131/495/130 44/496/130 49/497/130
f 131/498/131 105/499/131 44/500/131
f 106/501/132 103/502/132 104/503/132 132/504/132
f 105/505/133 132/506/133 44/507/133
f 44/508/134 132/509/134 104/510/134 43/511/134
f 106/512/135 133/513/135 41/514/135
f 41/515/136 133/516/136 108/517/136 46/518/136
f 113/519/137 103/520/137 134/521/137 114/522/137
f 103/523/138 106/524/138 134/525/138
f 114/526/139 134/527/139 41/528/139 42/529/139
f 134/530/140 106/531/140 41/532/140
f 127/533/141 110/534/141 109/535/141 98/536/141
f 126/537/142 127/538/142 98/539/142
f 126/540/143 97/541/143 127/542/143
f 105/543/144 133/544/144 132/545/144
f 133/546/145 106/547/145 132/548/145
f 108/549/146 133/550/146 105/551/146 107/552/146
f 79/553/147 81/554/147 119/555/147 78/556/147
f 118/557/148 78/558/148 119/559/148
f 118/560/149 119/561/149 84/562/149