# Made in Blockbench 4.12.4
mtllib MuroLab1.mtl

o Muros1
v -0.35139 0.0625 -0.4791625
v -0.41527875 0.0625 -0.4791625
v -0.41527875 0.0625 -0.4152775
v -0.41527875 0.0625 -0.351388125
v -0.35139 0.0625 -0.4152775
v -0.35139 0.0625 -0.351388125
v -0.28750125 0.0625 -0.4152775
v -0.28750125 0.0625 -0.351388125
v -0.41527875 0.09375 -0.4791625
v -0.35139 0.09375 -0.4791625
v -0.41527875 0.09375 -0.4152775
v -0.35139 0.09375 -0.4152775
v -0.41527875 0.09375 -0.351388125
v -0.35139 0.09375 -0.351388125
v -0.28750125 0.09375 -0.351388125
v -0.28750125 0.09375 -0.4152775
v -0.39930625 0.10625 -0.463194375
v -0.39930625 0.10625 -0.4152775
v -0.3673625 0.10625 -0.399305
v -0.3673625 0.10625 -0.463194375
v -0.39930625 0.10625 -0.367360625
v -0.35139 0.10625 -0.367360625
v -0.30347375 0.10625 -0.367360625
v -0.30347375 0.10625 -0.399305
v -0.3513875 0.10625 -0.399305
v -0.3673625 0.10625 -0.415275
vt 0.25 1
vt 0.25 0.25
vt 1 0.25
vt 0.75 0.75
vt 1.005640625 1
vt 0 1
vt 0 0.5128675
vt 1.005640625 0.5128675
vt 1.005640625 1
vt 0 1
vt 0 0.5128675
vt 1.005640625 0.5128675
vt 1.005640625 1
vt 0 1
vt 0 0.5128675
vt 1.005640625 0.5128675
vt 1.005640625 1
vt 0 1
vt 0 0.5128675
vt 1.005640625 0.5128675
vt 1.005640625 1
vt 0 1
vt 0 0.5128675
vt 1.005640625 0.5128675
vt 1.005640625 1
vt 0 1
vt 0 0.5128675
vt 1.005640625 0.5128675
vt 1.005640625 1
vt 0 1
vt 0 0.5128675
vt 1.005640625 0.5128675
vt 0.25 0
vt 0.25 0.75
vt 0 1
vt 0 0
vt 0.25 0.75
vt 0.75 0.75
vt 1 1
vt 0 1
vt 0.25 0.25
vt 0.25 1
vt 0 1
vt 0 0
vt 1 0.25
vt 0.25 0.25
vt 0 0
vt 1 0
vt 0.75 0.25
vt 0 0.25
vt 0 0
vt 1 0
vt 0.75 0.75
vt 0.75 0.25
vt 1 0
vt 1 1
vt 1.005640625 1
vt 0 1
vt 0 0.5128675
vt 1.005640625 0.5128675
vt 1.005640625 0.012867500000000032
vt 1.005640625 1
vt 0 1
vt 0 0.012867500000000032
vt 0 0.012867500000000032
vt 1.005640625 0.012867500000000032
vt 1.005640625 1
vt 0 1
vt 1.005640625 0.012867500000000032
vt 1.005640625 1
vt 0 1
vt 0 0.012867500000000032
vt 0.75 0.75
vt 1 0.25
vt 1 0.75
vt 0 0.75
vt 0 0.25
vt 0.75 0.25
vt 0.75 0.75
vt 0.75 0.75
vt 1 0.75
vt 1 1
vt 0.00001 1
vt 0.00001 0.7496618749999999
vt 0.75102125 0.7496618749999999
vt 1.00136125 1
vt 0.25 0.75
vt 0.25 0
vt 0.75 0
vt 0.75 0.75
vt 0.25 1
vt 0.75 0.75
vt 0.75 1
vt 0.75 0.75
vt 0.75 0
vt 1 0
vt 1 1
vt 0.75 1
vt 0.75 0.75
vt 1 1
vn 0 1 0
vn -1 0 0
vn 1 0 0
vn -1 0 0
vn 0 0 1
vn 0 0 1
vn 1 0 0
vn 0 0 -1
vn -0.6163016145378515 0.7875102030564669 0
vn 0 0.7874282512316384 -0.6164063182368297
vn -0.6163016145378515 0.7875102030564668 0
vn 0 0.7875102030564669 0.6163016145378515
vn 0 0.7875102030564669 0.6163016145378515
vn 0.6163016145378515 0.7875102030564668 0
vn 0 0 -1
vn 0 -1 0
vn 0 -1 0
vn 0 -1 0
vn 0 1 0
vn 0 1 0
vn 0 0.7875102030564668 -0.6163016145378515
vn 0 0.787510203056467 -0.6163016145378515
vn 0 1 0
vn 0 1 0
vn 0.6163016145378515 0.7875102030564668 0
vn 0.6163016145378515 0.7875102030564669 0
usemtl m_dee6e04d-1d5c-0781-90a7-89be223c9380
f 18/1/1 21/2/1 22/3/1 19/4/1
f 11/5/2 9/6/2 2/7/2 3/8/2
f 10/9/3 12/10/3 5/11/3 1/12/3
f 13/13/4 11/14/4 3/15/4 4/16/4
f 14/17/5 13/18/5 4/19/5 6/20/5
f 15/21/6 14/22/6 6/23/6 8/24/6
f 16/25/7 15/26/7 8/27/7 7/28/7
f 12/29/8 16/30/8 7/31/8 5/32/8
f 18/33/9 17/34/9 9/35/9 11/36/9
f 17/37/10 20/38/10 10/39/10 9/40/10
f 21/41/11 18/42/11 11/43/11 13/44/11
f 22/45/12 21/46/12 13/47/12 14/48/12
f 23/49/13 22/50/13 14/51/13 15/52/13
f 24/53/14 23/54/14 15/55/14 16/56/14
f 1/57/15 2/58/15 9/59/15 10/60/15
f 7/61/16 8/62/16 6/63/16 5/64/16
f 2/65/17 1/66/17 5/67/17 3/68/17
f 5/69/18 6/70/18 4/71/18 3/72/18
f 19/73/19 22/74/19 25/75/19
f 25/76/20 22/77/20 23/78/20 24/79/20
f 19/80/21 25/81/21 12/82/21
f 12/83/22 25/84/22 24/85/22 16/86/22
f 17/87/23 18/88/23 26/89/23 20/90/23
f 18/91/24 19/92/24 26/93/24
f 20/94/25 26/95/25 12/96/25 10/97/25
f 26/98/26 19/99/26 12/100/26