# Made in Blockbench 4.12.4
mtllib MuroLab5.mtl

o Muros5
v -0.03194375 0.0625 -0.03194375
v -0.03194375 0.0625 0.03194375
v 0.03194375 0.0625 -0.03194375
v 0.03194375 0.0625 0.03194375
v 0.03194375 0.09375 0.03194375
v -0.03194375 0.09375 -0.03194375
v 0.03194375 0.09375 -0.03194375
v -0.03194375 0.09375 0.03194375
v 0.015971875 0.10625 0.015971875
v -0.015971875 0.10625 -0.015971875
v 0.015971875 0.10625 -0.015971875
v -0.015971875 0.10625 0.015971875
vt 0.75 0.25
vt 0.75 0.75
vt 0.25 0.75
vt 0.25 0.25
vt 1.005640625 1
vt 0 1
vt 0 0.5128675
vt 1.005640625 0.5128675
vt 1.005640625 1
vt 0 1
vt 0 0.5128675
vt 1.005640625 0.5128675
vt 1.005640625 1
vt 0 1
vt 0 0.5128675
vt 1.005640625 0.5128675
vt 1.005640625 1
vt 0 1
vt 0 0.5128675
vt 1.005640625 0.5128675
vt 0.75 0.75
vt 0.75 0.25
vt 1 0
vt 1 1
vt 0.25 0.75
vt 0.75 0.75
vt 1 1
vt 0 1
vt 0.25 0.25
vt 0.25 0.75
vt 0 1
vt 0 0
vt 0.75 0.25
vt 0.25 0.25
vt 0 0
vt 1 0
vt 0 1
vt 0 0.012867500000000032
vt 1.005640625 0.012867500000000032
vt 1.005640625 1
vn 0 1 0
vn 1 0 0
vn 0 0 -1
vn -1 0 0
vn 0 0 1
vn 0.6163165706983219 0.787498498209781 0
vn 0 0.787498498209781 -0.6163165706983219
vn -0.6163165706983219 0.787498498209781 0
vn 0 0.787498498209781 0.6163165706983219
vn 0 -1 0
usemtl m_c21c149e-1bc2-56a6-63b2-d3aacab34bbb
f 9/1/1 11/2/1 10/3/1 12/4/1
f 7/5/2 5/6/2 4/7/2 3/8/2
f 6/9/3 7/10/3 3/11/3 1/12/3
f 8/13/4 6/14/4 1/15/4 2/16/4
f 5/17/5 8/18/5 2/19/5 4/20/5
f 11/21/6 9/22/6 5/23/6 7/24/6
f 10/25/7 11/26/7 7/27/7 6/28/7
f 12/29/8 10/30/8 6/31/8 8/32/8
f 9/33/9 12/34/9 8/35/9 5/36/9
f 2/37/10 1/38/10 3/39/10 4/40/10