# Made in Blockbench 4.12.4
mtllib MuroLab11.mtl

o Muros11
v 0.351388125 0.0625 0.03194625
v 0.4152775 0.0625 0.03194625
v 0.351388125 0.0625 0.095835
v 0.4152775 0.0625 0.095835
v 0.351388125 0.0625 0.15972375
v 0.4152775 0.0625 0.15972375
v 0.351388125 0.0625 0.2236125
v 0.4152775 0.0625 0.2236125
v 0.351388125 0.0625 0.28750125
v 0.4152775 0.0625 0.28750125
v 0.031943125 0.0625 0.095835
v 0.031943125 0.0625 0.15972375
v 0.095831875 0.0625 0.03194625
v 0.095831875 0.0625 0.095835
v 0.095831875 0.0625 0.15972375
v 0.15972125 0.0625 0.03194625
v 0.15972125 0.0625 0.095835
v 0.15972125 0.0625 0.15972375
v 0.22361 0.0625 0.03194625
v 0.22361 0.0625 0.095835
v 0.22361 0.0625 0.15972375
v 0.22361 0.0625 0.2236125
v 0.22361 0.0625 0.28750125
v 0.287499375 0.0625 0.03194625
v 0.287499375 0.0625 0.095835
v 0.287499375 0.0625 0.15972375
v 0.287499375 0.0625 0.2236125
v 0.287499375 0.0625 0.28750125
v 0.095831875 0.09375 0.03194625
v 0.095831875 0.09375 0.095835
v 0.15972125 0.09375 0.095835
v 0.15972125 0.09375 0.03194625
v 0.095831875 0.09375 0.15972375
v 0.15972125 0.09375 0.15972375
v 0.031943125 0.09375 0.095835
v 0.031943125 0.09375 0.15972375
v 0.22361 0.09375 0.15972375
v 0.22361 0.09375 0.2236125
v 0.287499375 0.09375 0.2236125
v 0.287499375 0.09375 0.15972375
v 0.22361 0.09375 0.28750125
v 0.287499375 0.09375 0.28750125
v 0.4152775 0.09375 0.28750125
v 0.351388125 0.09375 0.2236125
v 0.4152775 0.09375 0.2236125
v 0.22361 0.09375 0.095835
v 0.287499375 0.09375 0.095835
v 0.22361 0.09375 0.03194625
v 0.287499375 0.09375 0.03194625
v 0.351388125 0.09375 0.095835
v 0.351388125 0.09375 0.03194625
v 0.4152775 0.09375 0.095835
v 0.4152775 0.09375 0.03194625
v 0.351388125 0.09375 0.15972375
v 0.4152775 0.09375 0.15972375
v 0.351388125 0.09375 0.28750125
v 0.351388125 0.10625 0.239585
v 0.351388125 0.10625 0.271529375
v 0.399305 0.10625 0.271529375
v 0.399305 0.10625 0.239585
v 0.271526875 0.10625 0.239585
v 0.287499375 0.10625 0.271529375
v 0.2395825 0.10625 0.2236125
v 0.2395825 0.10625 0.271529375
v 0.2395825 0.10625 0.143751875
v 0.271526875 0.10625 0.15972375
v 0.2395825 0.10625 0.111806875
v 0.271526875 0.10625 0.0798625
v 0.2395825 0.10625 0.047918125
v 0.287499375 0.10625 0.047918125
v 0.367360625 0.10625 0.0798625
v 0.351388125 0.10625 0.047918125
v 0.399305 0.10625 0.095835
v 0.399305 0.10625 0.047918125
v 0.367360625 0.10625 0.143751875
v 0.399305 0.10625 0.143751875
v 0.111804375 0.10625 0.047918125
v 0.111804375 0.10625 0.111806875
v 0.14374875 0.10625 0.111806875
v 0.14374875 0.10625 0.047918125
v 0.095831875 0.10625 0.143751875
v 0.15972125 0.10625 0.143751875
v 0.047915 0.10625 0.111806875
v 0.047915 0.10625 0.143751875
v 0.2875 0.10625 0.239585
v 0.271526875 0.10625 0.2236125
v 0.367360625 0.10625 0.0958375
v 0.3513875 0.10625 0.0798625
v 0.2875 0.10625 0.0798625
v 0.2395825 0.10625 0.159725
v 0.2236125 0.10625 0.143751875
v 0.2236125 0.10625 0.111806875
v 0.15971875 0.10625 0.111806875
v 0.14374875 0.10625 0.0958375
v 0.111804375 0.10625 0.0958375
v 0.09583125 0.10625 0.111806875
v 0.2395825 0.10625 0.0958375
v 0.271526875 0.10625 0.0958375
vt 0 0.75
vt 0.25 0.25
vt 0.75 0
vt 0.75 0.75
vt 0 0.75
vt 0 0.25
vt 0.75 0.25
vt 0.75 0.75
vt 0.25 0.75
vt 0 0.25
vt 1 0.25
vt 0.75 0.75
vt 0.25 1
vt 0.25 0.25
vt 1 0.25
vt 0.75 0.75
vt 1.005640625 1
vt 0 1
vt 0 0.5128675
vt 1.005640625 0.5128675
vt 1.005640625 1
vt 0 1
vt 0 0.5128675
vt 1.005640625 0.5128675
vt 1.005640625 1
vt 0 1
vt 0 0.5128675
vt 1.005640625 0.5128675
vt 1.005640625 1
vt 0 1
vt 0 0.5128675
vt 1.005640625 0.5128675
vt 1.005640625 1
vt 0 1
vt 0 0.5128675
vt 1.005640625 0.5128675
vt 1.005640625 1
vt 0 1
vt 0 0.5128675
vt 1.005640625 0.5128675
vt 1.005640625 1
vt 0 1
vt 0 0.5128675
vt 1.005640625 0.5128675
vt 1.005640625 1
vt 0 1
vt 0 0.5128675
vt 1.005640625 0.5128675
vt 1.005640625 1
vt 0 1
vt 0 0.5128675
vt 1.005640625 0.5128675
vt 1.005640625 1
vt 0 1
vt 0 0.5128675
vt 1.005640625 0.5128675
vt 1.005640625 1
vt 0 1
vt 0 0.5128675
vt 1.005640625 0.5128675
vt 1.005640625 1
vt 0 1
vt 0 0.5128675
vt 1.005640625 0.5128675
vt 1.005640625 1
vt 0 1
vt 0 0.5128675
vt 1.005640625 0.5128675
vt 1.005640625 1
vt 0 1
vt 0 0.5128675
vt 1.005640625 0.5128675
vt 1.005640625 1
vt 0 1
vt 0 0.5128675
vt 1.005640625 0.5128675
vt 1.005640625 1
vt 0 1
vt 0 0.5128675
vt 1.005640625 0.5128675
vt 1.005640625 1
vt 0 1
vt 0 0.5128675
vt 1.005640625 0.5128675
vt 1.005640625 1
vt 0 1
vt 0 0.5128675
vt 1.005640625 0.5128675
vt 1.005640625 1
vt 0 1
vt 0 0.5128675
vt 1.005640625 0.5128675
vt 1.005640625 1
vt 0 1
vt 0 0.5128675
vt 1.005640625 0.5128675
vt 1.005640625 1
vt 0 1
vt 0 0.5128675
vt 1.005640625 0.5128675
vt 1.005640625 1
vt 0 1
vt 0 0.5128675
vt 1.005640625 0.5128675
vt 1.005640625 1
vt 0 1
vt 0 0.5128675
vt 1.005640625 0.5128675
vt 1.005640625 1
vt 0 1
vt 0 0.5128675
vt 1.005640625 0.5128675
vt 1.005640625 1
vt 0 1
vt 0 0.5128675
vt 1.005640625 0.5128675
vt 1.005640625 1
vt 0 1
vt 0 0.5128675
vt 1.005640625 0.5128675
vt 1.005640625 1
vt 0 1
vt 0 0.5128675
vt 1.005640625 0.5128675
vt 1.005640625 1
vt 0 1
vt 0 0.5128675
vt 1.005640625 0.5128675
vt 0.75 0.25
vt 0 0.25
vt 0 0
vt 1 0
vt 0.75 0.75
vt 0.75 0.25
vt 1 0
vt 1 1
vt 0 0.75
vt 0.75 0.75
vt 1 1
vt 0 1
vt 1 0.25
vt 0 0.25
vt 0 0
vt 1 0
vt 0.25 0.25
vt 0.25 1
vt 0 1
vt 0 0
vt 1 0.25
vt 0.25 0.25
vt 0 0
vt 1 0
vt 0.25 0.75
vt 1 0.75
vt 1 1
vt 0 1
vt 0 0.75
vt 1 0.75
vt 1 1
vt 0 1
vt 0.75 0.75
vt 0.75 0
vt 1 0
vt 1 1
vt 0 0.75
vt 0.75 0.75
vt 1 1
vt 0 1
vt 0.75 0.25
vt 0.25 0.25
vt 0 0
vt 1 0
vt 0.75 1
vt 0.75 0.25
vt 1 0
vt 1 1
vt 0.25 0.75
vt 0.75 0.75
vt 1 1
vt 0 1
vt 1 0.25
vt 0 0.25
vt 0 0
vt 1 0
vt 0.25 0.25
vt 0.25 0.75
vt 0 1
vt 0 0
vt 1 0.25
vt 0.25 0.25
vt 0 0
vt 1 0
vt 0 1
vt 0 0.012867500000000032
vt 1.005640625 0.012867500000000032
vt 1.005640625 1
vt 1.005640625 1
vt 0 1
vt 0 0.012867500000000032
vt 1.005640625 0.012867500000000032
vt 0 1
vt 0 0.012867500000000032
vt 1.005640625 0.012867500000000032
vt 1.005640625 1
vt 1.005640625 0.012867500000000032
vt 1.005640625 1
vt 0 1
vt 0 0.012867500000000032
vt 1.005640625 1
vt 0 1
vt 0 0.012867500000000032
vt 1.005640625 0.012867500000000032
vt 1.005640625 1
vt 0 1
vt 0 0.012867500000000032
vt 1.005640625 0.012867500000000032
vt 1.005640625 0.012867500000000032
vt 1.005640625 1
vt 0 1
vt 0 0.012867500000000032
vt 1.005640625 1
vt 0 1
vt 0 0.012867500000000032
vt 1.005640625 0.012867500000000032
vt 0 1
vt 0 0.012867500000000032
vt 1.005640625 0.012867500000000032
vt 1.005640625 1
vt 1.005640625 1
vt 0 1
vt 0 0.012867500000000032
vt 1.005640625 0.012867500000000032
vt 1.005640625 0.012867500000000032
vt 1.005640625 1
vt 0 1
vt 0 0.012867500000000032
vt 1.005640625 1
vt 0 1
vt 0 0.012867500000000032
vt 1.005640625 0.012867500000000032
vt 1.005640625 0.012867500000000032
vt 1.005640625 1
vt 0 1
vt 0 0.012867500000000032
vt 0.75 0.75
vt 1 0.25
vt 1 0.75
vt 0 0.75
vt 0 0.25
vt 1 0.25
vt 1 0.75
vt 0.75 0.75
vt 1 0.75
vt 1 1
vt 0 0.75
vt 1 0.75
vt 1 1
vt 0 1
vt 0.25 1
vt 0.75 0.75
vt 0.75 1
vt 1 1
vt 0.75 1
vt 0.75 0
vt 1 0
vt 0.75 1
vt 0.75 0.75
vt 1 1
vt 0.25 0.25
vt 0.25 0
vt 0.75 0
vt 0.75 1
vt 0.25 1
vt 0.25 0.25
vt 0.75 0.25
vt 0.25 0.25
vt 0.25 1
vt 0 1
vt 0 0
vt 0.25 0
vt 0.25 0.25
vt 0 0
vt 0 0.25
vt 0.25 0.25
vt 0 0.75
vt 0.25 0.25
vt 0 0.25
vt 0 0
vt 1 0.75
vt 0.75 0.25
vt 1 0.25
vt 0 0.25
vt 1 0.25
vt 1 0.75
vt 0 0.75
vt 1 0
vt 1 0.25
vt 0 0.25
vt 0 0
vt 1 0.25
vt 0.75 0.25
vt 1 0
vt 0 0
vt 0.25 0
vt 0.25 1
vt 0 1
vt 0.25 0
vt 0.25 0.25
vt 0 0
vt 0.75 0
vt 0.25 0.25
vt 0.25 0
vt 0.25 1
vt 0.25 0
vt 0.75 0
vt 0.75 1
vt 0 0.75
vt 0 0.25
vt 0.25 0.25
vt 0.25 0.75
vt 0.25 0.25
vt 0 0.25
vt 0 0
vt 1 0
vt 1 0.25
vt 0 0.25
vt 0 0
vt 0 0.75
vt 0.25 0.75
vt 0 1
vt 0.75 0.75
vt 1 0.25
vt 1 0.75
vt 0 0.75
vt 0 0.25
vt 1 0.25
vt 1 0.75
vt 1 1
vt 0.75 0.75
vt 1 0.75
vt 0 0.75
vt 1 0.75
vt 1 1
vt 0 1
vt 0.75 0.75
vt 0.25 0.75
vt 0.25 0
vt 0.75 0
vt 0.75 1
vt 0.25 1
vt 0.25 0.75
vt 0.75 0.75
vt 0.25 0.75
vt 0.25 1
vt 0 1
vt 0 0
vt 0.25 0
vt 0.25 0.75
vt 0 1
vt 0.75 0.75
vt 0.75 0
vt 1 0
vt 1 1
vt 0.75 1
vt 0.75 0.75
vt 1 1
vt 1 0.75
vt 0.25 0.75
vt 0.25 0.25
vt 1 0.25
vt 0 0.25
vt 0.25 0.75
vt 0 0.75
vt 0.25 0.75
vt 1 0.75
vt 1 1
vt 0 1
vt 0 0.75
vt 0.25 0.75
vt 0 1
vt 0.75 0.25
vt 0.75 0
vt 1 0
vt 0.75 1
vt 0.75 0
vt 1 0
vt 1 1
vt 0.25 0.75
vt 0.25 1
vt 0 1
vt 0 0
vt 0.25 0
vt 0.25 0.75
vt 0 1
vt 0.75 0.25
vt 1 0.75
vt 0.25 0.75
vt 0.25 0
vt 0.75 1
vt 0.25 0.75
vt 0.25 0.25
vt 0.75 0
vt 0.25 1
vt 0.25 0.75
vt 0.75 1
vt 0.25 0
vt 0.75 0
vt 0.75 0.25
vn 0 1 0
vn 0 1 0
vn 0 1 0
vn 0 1 0
vn -1 0 0
vn 1 0 0
vn 0 0 -1
vn 0 0 1
vn -1 0 0
vn 0 0 1
vn 0 0 -1
vn -1 0 0
vn 1 0 0
vn -1 0 0
vn 0 0 1
vn 0 0 1
vn 0 0 -1
vn 0 0 1
vn 1 0 0
vn 0 0 -1
vn 0 0 1
vn 0 0 -1
vn 1 0 0
vn -1 0 0
vn 0 0 -1
vn 0 0 1
vn 0 0 -1
vn 1 0 0
vn 0 0 -1
vn -1 0 0
vn 0 0 1
vn 1 0 0
vn 0 0.7874984982097806 0.6163165706983227
vn 0.6163016145378515 0.7875102030564668 0
vn 0 0.7875102030564668 -0.6163016145378515
vn 0 0.7874984982097806 0.6163165706983227
vn -0.6163016145378515 0.7875102030564668 0
vn 0 0.7874984982097805 0.6163165706983227
vn 0 0.7874984982097809 -0.616316570698322
vn 0 0.7874984982097809 -0.6163165706983219
vn 0.6163016145378515 0.7875102030564668 0
vn 0 0.7874984982097809 -0.616316570698322
vn 0 0.7874984982097809 0.616316570698322
vn 0.6163016145378515 0.7875102030564668 0
vn 0 0.787498498209781 -0.616316570698322
vn 0 0.7874984982097809 0.6163165706983219
vn -0.616316570698322 0.7874984982097809 0
vn 0 0.7874984982097809 0.616316570698322
vn 0 -1 0
vn 0 -1 0
vn 0 -1 0
vn 0 -1 0
vn 0 -1 0
vn 0 -1 0
vn 0 -1 0
vn 0 -1 0
vn 0 -1 0
vn 0 -1 0
vn 0 -1 0
vn 0 -1 0
vn 0 -1 0
vn 0 1 0
vn 0 1 0
vn 0 0.7875102030564668 -0.6163016145378515
vn 0 0.787510203056467 -0.6163016145378515
vn 0 1 0
vn 0.6163016145378515 0.787510203056467 0
vn 0.6163016145378515 0.7875102030564669 0
vn 0 1 0
vn 0 1 0
vn -0.6163016145378515 0.7875102030564668 0
vn -0.6163016145378515 0.7875102030564668 0
vn 0 1 0
vn 0 0.7875102030564668 0.6163016145378515
vn 0 1 0
vn 0 1 0
vn 0 0.787510203056467 0.6163016145378515
vn 0 0.7875102030564668 0.6163016145378515
vn -0.6163016145378515 0.7875102030564668 0
vn -0.6163016145378515 0.7875102030564668 0
vn 0 1 0
vn 0 1 0
vn 0 1 0
vn 0 0.7874984982097809 0.616316570698322
vn 0 0.787498498209781 0.616316570698322
vn 0 0.7874984982097809 -0.616316570698322
vn 0 1 0
vn 0 1 0
vn 0 0.7874984982097809 -0.6163165706983221
vn 0 0.787498498209781 -0.616316570698322
vn 0 1 0
vn 0 1 0
vn -0.6163016145378515 0.7875102030564668 0
vn -0.6163016145378515 0.7875102030564668 0
vn 0.6163016145378515 0.7875102030564668 0
vn 0.6163016145378515 0.7875102030564668 0
vn 0 1 0
vn 0 1 0
vn 0 0.787498498209781 -0.6163165706983221
vn 0 0.7874984982097809 -0.616316570698322
vn 0.6163016145378515 0.7875102030564668 0
vn 0.6163016145378515 0.7875102030564669 0
vn -0.6163016145378515 0.7875102030564668 0
vn -0.6163016145378515 0.7875102030564668 0
vn 0 1 0
vn 0 1 0
vn 0 1 0
vn 0 1 0
usemtl m_fa12dae8-0cb6-04f3-fad1-a623778af0ae
f 72/1/1 71/2/1 73/3/1 74/4/1
f 57/5/2 58/6/2 59/7/2 60/8/2
f 78/9/3 81/10/3 82/11/3 79/12/3
f 63/13/4 64/14/4 62/15/4 61/16/4
f 30/17/5 29/18/5 13/19/5 14/20/5
f 32/21/6 31/22/6 17/23/6 16/24/6
f 29/25/7 32/26/7 16/27/7 13/28/7
f 34/29/8 33/30/8 15/31/8 18/32/8
f 36/33/9 35/34/9 11/35/9 12/36/9
f 33/37/10 36/38/10 12/39/10 15/40/10
f 35/41/11 30/42/11 14/43/11 11/44/11
f 38/45/12 37/46/12 21/47/12 22/48/12
f 40/49/13 39/50/13 27/51/13 26/52/13
f 41/53/14 38/54/14 22/55/14 23/56/14
f 42/57/15 41/58/15 23/59/15 28/60/15
f 56/61/16 42/62/16 28/63/16 9/64/16
f 39/65/17 44/66/17 7/67/17 27/68/17
f 43/69/18 56/70/18 9/71/18 10/72/18
f 45/73/19 43/74/19 10/75/19 8/76/19
f 44/77/20 45/78/20 8/79/20 7/80/20
f 37/81/21 34/82/21 18/83/21 21/84/21
f 31/85/22 46/86/22 20/87/22 17/88/22
f 47/89/23 40/90/23 26/91/23 25/92/23
f 46/93/24 48/94/24 19/95/24 20/96/24
f 48/97/25 49/98/25 24/99/25 19/100/25
f 50/101/26 47/102/26 25/103/26 3/104/26
f 49/105/27 51/106/27 1/107/27 24/108/27
f 53/109/28 52/110/28 4/111/28 2/112/28
f 51/113/29 53/114/29 2/115/29 1/116/29
f 54/117/30 50/118/30 3/119/30 5/120/30
f 55/121/31 54/122/31 5/123/31 6/124/31
f 52/125/32 55/126/32 6/127/32 4/128/32
f 59/129/33 58/130/33 56/131/33 43/132/33
f 60/133/34 59/134/34 43/135/34 45/136/34
f 57/137/35 60/138/35 45/139/35 44/140/35
f 58/141/36 62/142/36 42/143/36 56/144/36
f 64/145/37 63/146/37 38/147/37 41/148/37
f 62/149/38 64/150/38 41/151/38 42/152/38
f 69/153/39 70/154/39 49/155/39 48/156/39
f 70/157/40 72/158/40 51/159/40 49/160/40
f 74/161/41 73/162/41 52/163/41 53/164/41
f 72/165/42 74/166/42 53/167/42 51/168/42
f 76/169/43 75/170/43 54/171/43 55/172/43
f 73/173/44 76/174/44 55/175/44 52/176/44
f 77/177/45 80/178/45 32/179/45 29/180/45
f 82/181/46 81/182/46 33/183/46 34/184/46
f 84/185/47 83/186/47 35/187/47 36/188/47
f 81/189/48 84/190/48 36/191/48 33/192/48
f 15/193/49 14/194/49 17/195/49 18/196/49
f 15/197/50 12/198/50 11/199/50 14/200/50
f 14/201/51 13/202/51 16/203/51 17/204/51
f 7/205/52 9/206/52 28/207/52 27/208/52
f 10/209/53 9/210/53 7/211/53 8/212/53
f 28/213/54 23/214/54 22/215/54 27/216/54
f 1/217/55 3/218/55 25/219/55 24/220/55
f 4/221/56 3/222/56 1/223/56 2/224/56
f 5/225/57 3/226/57 4/227/57 6/228/57
f 27/229/58 22/230/58 21/231/58 26/232/58
f 20/233/59 21/234/59 18/235/59 17/236/59
f 26/237/60 21/238/60 20/239/60 25/240/60
f 24/241/61 25/242/61 20/243/61 19/244/61
f 61/245/62 62/246/62 85/247/62
f 85/248/63 62/249/63 58/250/63 57/251/63
f 61/252/64 85/253/64 39/254/64
f 85/255/65 57/256/65 44/257/65 39/258/65
f 63/259/66 61/260/66 86/261/66
f 40/262/67 66/263/67 86/264/67 39/265/67
f 86/266/68 61/267/68 39/268/68
f 71/269/69 87/270/69 73/271/69
f 73/272/70 87/273/70 75/274/70 76/275/70
f 75/276/71 87/277/71 50/278/71 54/279/71
f 87/280/72 71/281/72 50/282/72
f 88/283/73 71/284/73 72/285/73
f 71/286/74 88/287/74 50/288/74
f 70/289/75 68/290/75 89/291/75
f 89/292/76 88/293/76 72/294/76 70/295/76
f 50/296/77 88/297/77 89/298/77 47/299/77
f 89/300/78 68/301/78 47/302/78
f 38/303/79 63/304/79 90/305/79 37/306/79
f 90/307/80 65/308/80 37/309/80
f 66/310/81 65/311/81 90/312/81
f 90/313/82 63/314/82 86/315/82 66/316/82
f 92/317/83 91/318/83 65/319/83 67/320/83
f 65/321/84 91/322/84 37/323/84
f 37/324/85 91/325/85 82/326/85 34/327/85
f 92/328/86 67/329/86 46/330/86
f 79/331/87 82/332/87 93/333/87
f 93/334/88 82/335/88 91/336/88 92/337/88
f 31/338/89 79/339/89 93/340/89
f 93/341/90 92/342/90 46/343/90 31/344/90
f 80/345/91 77/346/91 95/347/91 94/348/91
f 94/349/92 95/350/92 78/351/92 79/352/92
f 78/353/93 95/354/93 30/355/93
f 30/356/94 95/357/94 77/358/94 29/359/94
f 80/360/95 94/361/95 31/362/95 32/363/95
f 94/364/96 79/365/96 31/366/96
f 96/367/97 83/368/97 84/369/97 81/370/97
f 81/371/98 78/372/98 96/373/98
f 83/374/99 96/375/99 30/376/99 35/377/99
f 96/378/100 78/379/100 30/380/100
f 68/381/101 98/382/101 47/383/101
f 98/384/102 66/385/102 40/386/102 47/387/102
f 67/388/103 97/389/103 46/390/103
f 46/391/104 97/392/104 69/393/104 48/394/104
f 68/395/105 70/396/105 69/397/105 97/398/105
f 98/399/106 67/400/106 65/401/106 66/402/106
f 97/403/107 67/404/107 98/405/107
f 97/406/108 98/407/108 68/408/108