# Made in Blockbench 4.12.4
mtllib MuroLab2.mtl

o Muros2
v 0.031943125 0.0625 -0.4152775
v 0.031943125 0.0625 -0.351388125
v 0.031943125 0.09375 -0.4152775
v 0.031943125 0.09375 -0.351388125
v -0.2236125 0.0625 -0.4152775
v -0.2236125 0.0625 -0.351388125
v -0.2236125 0.0625 -0.287499375
v -0.2236125 0.0625 -0.22361
v -0.15972375 0.0625 -0.4152775
v -0.15972375 0.0625 -0.351388125
v -0.15972375 0.0625 -0.287499375
v -0.15972375 0.0625 -0.22361
v -0.095835 0.0625 -0.4152775
v -0.095835 0.0625 -0.351388125
v -0.095835 0.0625 -0.287499375
v -0.095835 0.0625 -0.22361
v -0.03194625 0.0625 -0.4152775
v -0.03194625 0.0625 -0.351388125
v -0.03194625 0.0625 -0.287499375
v -0.03194625 0.0625 -0.22361
v -0.2236125 0.09375 -0.4152775
v -0.15972375 0.09375 -0.4152775
v -0.2236125 0.09375 -0.351388125
v -0.15972375 0.09375 -0.351388125
v -0.2236125 0.09375 -0.287499375
v -0.15972375 0.09375 -0.287499375
v -0.2236125 0.09375 -0.22361
v -0.15972375 0.09375 -0.22361
v -0.095835 0.09375 -0.22361
v -0.095835 0.09375 -0.287499375
v -0.03194625 0.09375 -0.287499375
v -0.095835 0.09375 -0.351388125
v -0.03194625 0.09375 -0.351388125
v -0.095835 0.09375 -0.4152775
v -0.03194625 0.09375 -0.4152775
v -0.03194625 0.09375 -0.22361
v -0.207640625 0.10625 -0.399305
v -0.207640625 0.10625 -0.351388125
v -0.17569625 0.10625 -0.351388125
v -0.17569625 0.10625 -0.399305
v -0.207640625 0.10625 -0.287499375
v -0.17569625 0.10625 -0.271526875
v -0.207640625 0.10625 -0.2395825
v -0.15972375 0.10625 -0.2395825
v -0.095835 0.10625 -0.2395825
v -0.0798625 0.10625 -0.271526875
v -0.03194625 0.10625 -0.399305
v -0.047918125 0.10625 -0.367360625
v 0.015970625 0.10625 -0.367360625
v 0.015970625 0.10625 -0.399305
v -0.0798625 0.10625 -0.399305
v -0.0798625 0.10625 -0.351388125
v -0.047918125 0.10625 -0.287499375
v -0.047918125 0.10625 -0.2395825
v -0.17569625 0.10625 -0.2875
v -0.159725 0.10625 -0.271526875
v -0.0798625 0.10625 -0.2875
v -0.0958375 0.10625 -0.271526875
v -0.047918125 0.10625 -0.3513875
v -0.03194375 0.10625 -0.367360625
vt 1.005640625 1
vt 0 1
vt 0 0.5128675
vt 1.005640625 0.5128675
vt 0.25034625 0.73409
vt 0.25034625 -0.06384812500000003
vt 0.751028125 -0.06384812500000003
vt 0.751028125 0.73409
vt 0.25 1
vt 0.25 0.25
vt 1 0.25
vt 0.75 0.75
vt 0.25 0.75
vt 0.25 0
vt 0.75 0.25
vt 1 0.75
vt 1.005640625 1
vt 0 1
vt 0 0.5128675
vt 1.005640625 0.5128675
vt 1.005640625 1
vt 0 1
vt 0 0.5128675
vt 1.005640625 0.5128675
vt 1.005640625 1
vt 0 1
vt 0 0.5128675
vt 1.005640625 0.5128675
vt 1.005640625 1
vt 0 1
vt 0 0.5128675
vt 1.005640625 0.5128675
vt 1.005640625 1
vt 0 1
vt 0 0.5128675
vt 1.005640625 0.5128675
vt 1.005640625 1
vt 0 1
vt 0 0.5128675
vt 1.005640625 0.5128675
vt 1.005640625 1
vt 0 1
vt 0 0.5128675
vt 1.005640625 0.5128675
vt 1.005640625 1
vt 0 1
vt 0 0.5128675
vt 1.005640625 0.5128675
vt 1.005640625 1
vt 0 1
vt 0 0.5128675
vt 1.005640625 0.5128675
vt 1.005640625 1
vt 0 1
vt 0 0.5128675
vt 1.005640625 0.5128675
vt 1.005640625 1
vt 0 1
vt 0 0.5128675
vt 1.005640625 0.5128675
vt 1.005640625 1
vt 0 1
vt 0 0.5128675
vt 1.005640625 0.5128675
vt 1.005640625 1
vt 0 1
vt 0 0.5128675
vt 1.005640625 0.5128675
vt 1.005640625 1
vt 0 1
vt 0 0.5128675
vt 1.005640625 0.5128675
vt 1.005640625 1
vt 0 1
vt 0 0.5128675
vt 1.005640625 0.5128675
vt 1.005640625 1
vt 0 1
vt 0 0.5128675
vt 1.005640625 0.5128675
vt 0.25034625 -0.06384812500000003
vt 0.25034625 0.73409
vt 0 1
vt 0 -0.06384812500000003
vt 0.751028125 0.73409
vt 0.751028125 -0.06384812500000003
vt 1.001374375 -0.06384812500000003
vt 1.001374375 1
vt 0.25034625 0.73409
vt 0.751028125 0.73409
vt 1.001374375 1
vt 0 1
vt 0.25 0
vt 0.25 1
vt 0 1
vt 0 0
vt 0.25 0.25
vt 0.25 1
vt 0 1
vt 0 0
vt 1 0.25
vt 0.25 0.25
vt 0 0
vt 1 0
vt 1 0.25
vt 0 0.25
vt 0 0
vt 1 0
vt 0.75 0.75
vt 0.75 0.25
vt 1 0
vt 1 1
vt 0.00001 0.7496618749999999
vt 0.75102125 0.7496618749999999
vt 1.00136125 1
vt 0.00001 1
vt 0.25 0
vt 0.25 0.75
vt 0 1
vt 0 0
vt 0.25 0.75
vt 1 0.75
vt 1 1
vt 0 1
vt 0.75 0.25
vt 0 0.25
vt 0 0
vt 1 0
vt 0 0.012867500000000032
vt 1.005640625 0.012867500000000032
vt 1.005640625 1
vt 0 1
vt 1.005640625 0.012867500000000032
vt 1.005640625 1
vt 0 1
vt 0 0.012867500000000032
vt 1.005640625 1
vt 0 1
vt 0 0.012867500000000032
vt 1.005640625 0.012867500000000032
vt 0 1
vt 0 0.012867500000000032
vt 1.005640625 0.012867500000000032
vt 1.005640625 1
vt 0 0.012867500000000032
vt 1.005640625 0.012867500000000032
vt 1.005640625 1
vt 0 1
vt 0 1
vt 0 0.012867500000000032
vt 1.005640625 0.012867500000000032
vt 1.005640625 1
vt 1.005640625 1
vt 0 1
vt 0 0.012867500000000032
vt 1.005640625 0.012867500000000032
vt 1.005640625 0.012867500000000032
vt 1.005640625 1
vt 0 1
vt 0 0.012867500000000032
vt 1.005640625 1
vt 0 1
vt 0 0.5128675
vt 1.005640625 0.5128675
vt 0.75 1
vt 0.75 0.25
vt 1 0
vt 1 1
vt 0.25 0.75
vt 0 0.25
vt 0.75 0.25
vt 0.75 1
vt 0.25 1
vt 0.25 0
vt 0.75 0
vt 0.75 1
vt 0.25 1
vt 0.75 0.75
vt 0.75 1
vt 1 1
vt 0.75 1
vt 0.75 0
vt 1 0
vt 0.75 1
vt 0.75 0.75
vt 1 1
vt 0.75 0.75
vt 1 0.25
vt 1 0.75
vt 0.75 0.75
vt 1 0.75
vt 1 1
vt 0.25 0.75
vt 0.25 1
vt 0 1
vt 0.25 0
vt 0.25 1
vt 0 1
vt 0 0
vt 0.25 1
vt 0.25 0.75
vt 0.75 1
vt 1 0.75
vt 0 0.75
vt 0 0.25
vt 1 0.25
vt 0 0.25
vt 0.25 0.75
vt 0 0.75
vt 0 0.75
vt 1 0.75
vt 1 1
vt 0 1
vt 0 0.75
vt 0.25 0.75
vt 0 1
vt 0.75 0.25
vt 0.75 0
vt 1 0
vt 0.75 1
vt 0.75 0
vt 1 0
vt 1 1
vt 0.75 1
vt 0.25 1
vt 0.25 0
vt 0.75 0
vt 0.75 0
vt 0.75 0.25
vt 0.25 0
vt 0.75 0.25
vt 0 0.25
vt 0 0
vt 1 0
vt 1 0.25
vt 0.75 0.25
vt 1 0
vt 1 0.75
vt 0.75 0.25
vt 1 0.25
vt 0 0.25
vt 0.75 0.25
vt 0.75 0.75
vt 0 0.75
vn 1 0 0
vn 0 1 0
vn 0 1 0
vn 0 1 0
vn -1 0 0
vn 1 0 0
vn 0 0 -1
vn -1 0 0
vn 1 0 0
vn -1 0 0
vn 0 0 1
vn 0 0 1
vn 0 0 -1
vn 0 0 1
vn 1 0 0
vn 1 0 0
vn -1 0 0
vn 0 0 -1
vn 0 0 1
vn 0 0 -1
vn -0.616316570698322 0.7874984982097809 0
vn 0.6163016145378515 0.7875102030564668 0
vn 0 0.787510203056467 -0.6163016145378515
vn -0.6163165706983219 0.7874984982097809 0
vn -0.616316570698322 0.7874984982097809 0
vn 0 0.7875102030564668 0.6163016145378515
vn 0 0.787510203056467 0.6163016145378515
vn 0.6163016145378515 0.787510203056467 0
vn 0 0.7875102030564668 -0.6163016145378515
vn -0.6163016145378515 0.7875102030564668 0
vn 0 0.787510203056467 -0.6163016145378515
vn 0 0.7875102030564668 0.6163016145378515
vn 0 -1 0
vn 0 -1 0
vn 0 -1 0
vn 0 -1 0
vn 0 -1 0
vn 0 -1 0
vn 0 -1 0
vn 0 -1 0
vn -1 0 0
vn 0.616316570698322 0.7874984982097809 0
vn 0 1 0
vn 0 1 0
vn 0 1 0
vn 0.6163016145378515 0.787510203056467 0
vn 0.6163016145378515 0.7875102030564668 0
vn 0 1 0
vn 0 0.7875102030564669 -0.6163016145378515
vn -0.6163016145378515 0.7875102030564668 0
vn -0.6163016145378515 0.787510203056467 0
vn 0 1 0
vn 0 1 0
vn 0 1 0
vn 0 0.7875102030564668 -0.6163016145378515
vn 0 0.7875102030564668 -0.6163016145378515
vn 0.616316570698322 0.7874984982097809 0
vn 0.6163165706983219 0.7874984982097809 0
vn 0 1 0
vn 0 1 0
vn 0 0.7875102030564668 0.6163016145378515
vn 0 0.7875102030564668 0.6163016145378515
vn 0 1 0
vn 0 1 0
usemtl m_36888cda-f695-6089-0b52-8752c7830658
f 3/1/1 4/2/1 2/3/1 1/4/1
f 37/5/2 38/6/2 39/7/2 40/8/2
f 41/9/3 43/10/3 44/11/3 42/12/3
f 51/13/4 52/14/4 48/15/4 47/16/4
f 23/17/5 21/18/5 5/19/5 6/20/5
f 22/21/6 24/22/6 10/23/6 9/24/6
f 21/25/7 22/26/7 9/27/7 5/28/7
f 25/29/8 23/30/8 6/31/8 7/32/8
f 24/33/9 26/34/9 11/35/9 10/36/9
f 27/37/10 25/38/10 7/39/10 8/40/10
f 28/41/11 27/42/11 8/43/11 12/44/11
f 29/45/12 28/46/12 12/47/12 16/48/12
f 26/49/13 30/50/13 15/51/13 11/52/13
f 36/53/14 29/54/14 16/55/14 20/56/14
f 31/57/15 36/58/15 20/59/15 19/60/15
f 33/61/16 31/62/16 19/63/16 18/64/16
f 32/65/17 34/66/17 13/67/17 14/68/17
f 34/69/18 35/70/18 17/71/18 13/72/18
f 4/73/19 33/74/19 18/75/19 2/76/19
f 35/77/20 3/78/20 1/79/20 17/80/20
f 38/81/21 37/82/21 21/83/21 23/84/21
f 40/85/22 39/86/22 24/87/22 22/88/22
f 37/89/23 40/90/23 22/91/23 21/92/23
f 41/93/24 38/94/24 23/95/24 25/96/24
f 43/97/25 41/98/25 25/99/25 27/100/25
f 44/101/26 43/102/26 27/103/26 28/104/26
f 45/105/27 44/106/27 28/107/27 29/108/27
f 50/109/28 49/110/28 4/111/28 3/112/28
f 47/113/29 50/114/29 3/115/29 35/116/29
f 52/117/30 51/118/30 34/119/30 32/120/30
f 51/121/31 47/122/31 35/123/31 34/124/31
f 54/125/32 45/126/32 29/127/32 36/128/32
f 19/129/33 15/130/33 14/131/33 18/132/33
f 12/133/34 11/134/34 15/135/34 16/136/34
f 6/137/35 10/138/35 11/139/35 7/140/35
f 1/141/36 2/142/36 18/143/36 17/144/36
f 18/145/37 14/146/37 13/147/37 17/148/37
f 19/149/38 20/150/38 16/151/38 15/152/38
f 7/153/39 11/154/39 12/155/39 8/156/39
f 6/157/40 5/158/40 9/159/40 10/160/40
f 30/161/41 32/162/41 14/163/41 15/164/41
f 53/165/42 54/166/42 36/167/42 31/168/42
f 46/169/43 45/170/43 54/171/43 53/172/43
f 38/173/44 41/174/44 55/175/44 39/176/44
f 41/177/45 42/178/45 55/179/45
f 24/180/46 39/181/46 55/182/46 26/183/46
f 55/184/47 42/185/47 26/186/47
f 42/187/48 44/188/48 56/189/48
f 42/190/49 56/191/49 26/192/49
f 46/193/50 57/194/50 30/195/50
f 57/196/51 52/197/51 32/198/51 30/199/51
f 57/200/52 46/201/52 53/202/52
f 58/203/53 56/204/53 44/205/53 45/206/53
f 45/207/54 46/208/54 58/209/54
f 56/210/55 58/211/55 30/212/55 26/213/55
f 58/214/56 46/215/56 30/216/56
f 48/217/57 59/218/57 33/219/57
f 59/220/58 53/221/58 31/222/58 33/223/58
f 59/224/59 52/225/59 57/226/59 53/227/59
f 59/228/60 48/229/60 52/230/60
f 49/231/61 60/232/61 33/233/61 4/234/61
f 60/235/62 48/236/62 33/237/62
f 47/238/63 48/239/63 60/240/63
f 60/241/64 49/242/64 50/243/64 47/244/64